<?xml version="1.0" encoding="UTF-8"?>
<svg version="1.1" xmlns="http://www.w3.org/2000/svg" width="650" height="650">
<path d="M0 0 C214.5 0 429 0 650 0 C650 214.5 650 429 650 650 C435.5 650 221 650 0 650 C0 435.5 0 221 0 0 Z " fill="#FEFEFE" transform="translate(0,0)"/>
<path d="M0 0 C3.81775629 2.18055368 7.14298709 4.75296534 9.16015625 8.76953125 C10.98866731 15.80405787 10.42363369 24.12563463 8.7734375 31.12890625 C5.11068107 31.52564582 1.44674474 31.84634415 -2.2265625 32.12890625 C-3.18304688 32.20882812 -4.13953125 32.28875 -5.125 32.37109375 C-11.04450797 32.65297508 -14.80204422 31.89532242 -19.765625 28.61328125 C-21.2265625 27.12890625 -21.2265625 27.12890625 -22.2265625 23.12890625 C-27.1765625 23.12890625 -32.1265625 23.12890625 -37.2265625 23.12890625 C-37.2265625 24.11890625 -37.2265625 25.10890625 -37.2265625 26.12890625 C-39.2065625 26.12890625 -41.1865625 26.12890625 -43.2265625 26.12890625 C-43.25349825 24.00397484 -43.27292878 21.87894713 -43.2890625 19.75390625 C-43.30066406 18.57054687 -43.31226563 17.3871875 -43.32421875 16.16796875 C-43.2265625 13.12890625 -43.2265625 13.12890625 -42.2265625 11.12890625 C-41.4840625 11.21140625 -40.7415625 11.29390625 -39.9765625 11.37890625 C-37.09661507 11.42668942 -37.09661507 11.42668942 -35.41796875 9.171875 C-32.68857991 6.62736455 -31.0834715 6.53526614 -27.4140625 6.19140625 C-21.58037929 5.40883899 -18.71149245 3.85044387 -14.2265625 0.12890625 C-9.44970307 -1.46338023 -4.76814021 -1.86543029 0 0 Z " fill="#EE904A" transform="translate(432.2265625,293.87109375)"/>
<path d="M0 0 C9.70922376 0.21107008 9.70922376 0.21107008 13.25 3.5625 C15.77730301 6.34547266 15.77730301 6.34547266 19.125 6 C22 6 22 6 24.375 7.8125 C27.32298562 13.59508718 26.53957358 19.84170567 25 26 C21.7 26 18.4 26 15 26 C15.33 25.01 15.66 24.02 16 23 C10.39 23 4.78 23 -1 23 C-1.33 22.34 -1.66 21.68 -2 21 C0.64 21 3.28 21 6 21 C6.33 19.68 6.66 18.36 7 17 C6.14535156 16.93941406 5.29070312 16.87882812 4.41015625 16.81640625 C3.30542969 16.73261719 2.20070313 16.64882813 1.0625 16.5625 C-0.03964844 16.48128906 -1.14179688 16.40007812 -2.27734375 16.31640625 C-5 16 -5 16 -6 15 C-6 13.02 -6 11.04 -6 9 C4.395 8.505 4.395 8.505 15 8 C8.24588944 3.09250436 8.24588944 3.09250436 1 2 C0.67 1.34 0.34 0.68 0 0 Z " fill="#137A0C" transform="translate(416,298)"/>
<path d="M0 0 C1.98 0 3.96 0 6 0 C7.65 3.96 9.3 7.92 11 12 C12.71017726 9.4347341 13.90417811 7.12039035 15.125 4.3125 C15.47820312 3.50425781 15.83140625 2.69601562 16.1953125 1.86328125 C16.46085937 1.24839844 16.72640625 0.63351562 17 0 C18.98 0 20.96 0 23 0 C23 6.93 23 13.86 23 21 C21.35 21 19.7 21 18 21 C17.67 18.03 17.34 15.06 17 12 C15.68 14.97 14.36 17.94 13 21 C12.01 21 11.02 21 10 21 C8.35 17.04 6.7 13.08 5 9 C4.67 12.96 4.34 16.92 4 21 C2.68 21 1.36 21 0 21 C0 14.07 0 7.14 0 0 Z " fill="#178219" transform="translate(318,320)"/>
<path d="M0 0 C1.32 0 2.64 0 4 0 C4.33 0.66 4.66 1.32 5 2 C5.66 1.34 6.32 0.68 7 0 C9.33512959 0.32050798 11.66822025 0.65596692 14 1 C15.258125 0.814375 16.51625 0.62875 17.8125 0.4375 C19.3903125 0.2209375 19.3903125 0.2209375 21 0 C23 2 23 2 23.1953125 5.2578125 C23.17210937 6.53398437 23.14890625 7.81015625 23.125 9.125 C23.10695313 10.40632813 23.08890625 11.68765625 23.0703125 13.0078125 C23.04710937 13.99523437 23.02390625 14.98265625 23 16 C21.68 16 20.36 16 19 16 C19 12.04 19 8.08 19 4 C17.35 4 15.7 4 14 4 C14 7.96 14 11.92 14 16 C12.68 16 11.36 16 10 16 C9.67 12.37 9.34 8.74 9 5 C7.68 4.67 6.36 4.34 5 4 C5 7.96 5 11.92 5 16 C3.35 16 1.7 16 0 16 C0 10.72 0 5.44 0 0 Z " fill="#148017" transform="translate(251,325)"/>
<path d="M0 0 C2.4375 1.5 2.4375 1.5 4 4 C4.80414661 8.04560357 4.63828902 10.97873756 2.4375 14.5 C-0.94888329 16.58392818 -3.09385318 16.55802097 -7 16 C-9.4375 14.5 -9.4375 14.5 -11 12 C-11.80414661 7.95439643 -11.63828902 5.02126244 -9.4375 1.5 C-6.05111671 -0.58392818 -3.90614682 -0.55802097 0 0 Z " fill="#127F15" transform="translate(384,325)"/>
<path d="M0 0 C2.4375 1.5 2.4375 1.5 4 4 C4.80414661 8.04560357 4.63828902 10.97873756 2.4375 14.5 C-0.94888329 16.58392818 -3.09385318 16.55802097 -7 16 C-9.4375 14.5 -9.4375 14.5 -11 12 C-11.80414661 7.95439643 -11.63828902 5.02126244 -9.4375 1.5 C-6.05111671 -0.58392818 -3.90614682 -0.55802097 0 0 Z " fill="#107E13" transform="translate(355,325)"/>
<path d="M0 0 C2.5625 1.8125 2.5625 1.8125 4 4 C4 4.99 4 5.98 4 7 C-0.875 6.125 -0.875 6.125 -2 5 C-3.99958364 4.95919217 -6.00045254 4.95745644 -8 5 C-9.20272819 7.40545638 -9.10071472 8.94996953 -9.0625 11.625 C-9.05347656 12.44226563 -9.04445312 13.25953125 -9.03515625 14.1015625 C-9.02355469 14.72804688 -9.01195312 15.35453125 -9 16 C-5.58343976 16.16677282 -5.58343976 16.16677282 -2 16 C-1.34 15.34 -0.68 14.68 0 14 C1.32 14 2.64 14 4 14 C3.64978759 16.53903996 3.15988127 17.82093298 1.4375 19.75 C-2.05075166 21.538847 -5.21701575 21.75659685 -9 21 C-12 19.1875 -12 19.1875 -14 16 C-14.97667772 10.66029475 -14.90889662 6.49528154 -12.0625 1.8125 C-7.96123965 -0.61477653 -4.65789401 -0.95591108 0 0 Z " fill="#158118" transform="translate(215,320)"/>
<path d="M0 0 C2.1796875 1.09765625 2.1796875 1.09765625 4 3 C4.390625 6.13671875 4.390625 6.13671875 4.25 9.6875 C4.21390625 10.86699219 4.1778125 12.04648437 4.140625 13.26171875 C4.07101563 14.61716797 4.07101563 14.61716797 4 16 C3.195625 15.814375 2.39125 15.62875 1.5625 15.4375 C0.716875 15.293125 -0.12875 15.14875 -1 15 C-1.33 15.33 -1.66 15.66 -2 16 C-4.9375 16.1875 -4.9375 16.1875 -8 16 C-10 14 -10 14 -10.25 11.5 C-10 9 -10 9 -8 7 C-5.34462628 6.43479997 -2.70855287 6.26211802 0 6 C-0.33 5.34 -0.66 4.68 -1 4 C-3.02463255 3.34786708 -3.02463255 3.34786708 -5 3 C-5 3.66 -5 4.32 -5 5 C-6.32 5 -7.64 5 -9 5 C-8.625 3.0625 -8.625 3.0625 -8 1 C-5.19084526 -0.40457737 -3.11189466 -0.24895157 0 0 Z " fill="#148017" transform="translate(232,325)"/>
<path d="M0 0 C3.625 0.25 3.625 0.25 5.33984375 1.34765625 C7.26111025 4.19159785 6.91302094 6.55329514 6.8125 9.9375 C6.78542969 11.11699219 6.75835937 12.29648437 6.73046875 13.51171875 C6.69566406 14.41535156 6.66085937 15.31898438 6.625 16.25 C5.820625 16.064375 5.01625 15.87875 4.1875 15.6875 C3.341875 15.543125 2.49625 15.39875 1.625 15.25 C1.295 15.58 0.965 15.91 0.625 16.25 C-2.3125 16.4375 -2.3125 16.4375 -5.375 16.25 C-7.375 14.25 -7.375 14.25 -7.625 11.75 C-7.375 9.25 -7.375 9.25 -5.375 7.25 C-3.05224823 6.84952556 -0.71760643 6.5102896 1.625 6.25 C1.625 5.59 1.625 4.93 1.625 4.25 C-1.015 4.58 -3.655 4.91 -6.375 5.25 C-3.97723048 0.29460967 -3.97723048 0.29460967 0 0 Z " fill="#0E7D11" transform="translate(284.375,324.75)"/>
<path d="M0 0 C9.70922376 0.21107008 9.70922376 0.21107008 13.25 3.5625 C15.77730301 6.34547266 15.77730301 6.34547266 19.125 6 C22 6 22 6 24.375 7.8125 C27.32298562 13.59508718 26.53957358 19.84170567 25 26 C21.7 26 18.4 26 15 26 C16 23 16 23 18.4375 20.6875 C21.16491051 17.82704508 22.03252833 15.78193472 23 12 C22.2575 12.33 21.515 12.66 20.75 13 C18 14 18 14 14 14 C14.33 12.02 14.66 10.04 15 8 C10.15441167 4.14330724 7.2849594 2.62849594 1 2 C0.67 1.34 0.34 0.68 0 0 Z " fill="#EC8A04" transform="translate(416,298)"/>
<path d="M0 0 C0.99 0.33 1.98 0.66 3 1 C4.16674805 3.40844727 4.16674805 3.40844727 5.26171875 6.56640625 C5.65810547 7.69111328 6.05449219 8.81582031 6.46289062 9.97460938 C7.06907227 11.75061523 7.06907227 11.75061523 7.6875 13.5625 C8.10322266 14.75037109 8.51894531 15.93824219 8.94726562 17.16210938 C9.97536273 20.1045942 10.99238263 23.05045212 12 26 C10.75 27.5 10.75 27.5 9 29 C7.68 29 6.36 29 5 29 C3.96172704 25.10860127 2.94747824 21.21132951 1.9375 17.3125 C1.64294922 16.20970703 1.34839844 15.10691406 1.04492188 13.97070312 C0.77099609 12.90400391 0.49707031 11.83730469 0.21484375 10.73828125 C-0.04176025 9.75899658 -0.29836426 8.77971191 -0.56274414 7.77075195 C-1.02289876 4.8548978 -0.76151422 2.83138669 0 0 Z " fill="#FF9315" transform="translate(430,326)"/>
<path d="M0 0 C1.9375 1.375 1.9375 1.375 3 3 C3 3.66 3 4.32 3 5 C0.36 4.67 -2.28 4.34 -5 4 C-5.33 4.66 -5.66 5.32 -6 6 C-4.88625 6.144375 -3.7725 6.28875 -2.625 6.4375 C1 7 1 7 3 8 C3.1875 10.875 3.1875 10.875 3 14 C-0.78760623 16.52507082 -3.55391578 16.62059926 -8 16 C-10 14.625 -10 14.625 -11 13 C-11 12.34 -11 11.68 -11 11 C-9.35 11 -7.7 11 -6 11 C-6 11.66 -6 12.32 -6 13 C-4.35 13 -2.7 13 -1 13 C-2.61628121 9.76743757 -5.76993715 9.32663296 -9 8 C-10 7 -10 7 -10.25 4.5625 C-10.1675 3.716875 -10.085 2.87125 -10 2 C-6.30513897 -0.46324069 -4.36706908 -0.38991688 0 0 Z " fill="#19831B" transform="translate(413,325)"/>
<path d="M0 0 C3.96 0 7.92 0 12 0 C12 1.65 12 3.3 12 5 C9.36 5 6.72 5 4 5 C4.33 6.32 4.66 7.64 5 9 C7.64 9 10.28 9 13 9 C13 9.33 13 9.66 13 10 C8.38 10 3.76 10 -1 10 C-1 10.66 -1 11.32 -1 12 C-2.65 12 -4.3 12 -6 12 C-6 8.7 -6 5.4 -6 2 C-3.03 2.495 -3.03 2.495 0 3 C0 2.01 0 1.02 0 0 Z " fill="#FF033D" transform="translate(396,307)"/>
<path d="M0 0 C2.475 0.495 2.475 0.495 5 1 C5.33 2.32 5.66 3.64 6 5 C6.66 5 7.32 5 8 5 C8.66 3.35 9.32 1.7 10 0 C11.32 0 12.64 0 14 0 C13 3 12 6 11 9 C11.95093297 10.69514137 12.95107762 12.36368108 14 14 C14 14.66 14 15.32 14 16 C12.35 15.67 10.7 15.34 9 15 C8.67 13.68 8.34 12.36 8 11 C7.34 11 6.68 11 6 11 C5.34 12.65 4.68 14.3 4 16 C2.68 16 1.36 16 0 16 C0.309375 15.2575 0.61875 14.515 0.9375 13.75 C1.288125 12.8425 1.63875 11.935 2 11 C2.268125 10.34 2.53625 9.68 2.8125 9 C3.09137448 6.02533884 1.60012564 4.43219097 0 2 C0 1.34 0 0.68 0 0 Z " fill="#158118" transform="translate(294,325)"/>
<path d="M0 0 C1.65 0 3.3 0 5 0 C5 1.32 5 2.64 5 4 C5.99 4 6.98 4 8 4 C8 5.32 8 6.64 8 8 C7.01 8 6.02 8 5 8 C5 10.97 5 13.94 5 17 C5.99 17 6.98 17 8 17 C8 17.99 8 18.98 8 20 C5.125 20.125 5.125 20.125 2 20 C0 18 0 18 -0.1953125 15.6171875 C-0.17210937 14.71226562 -0.14890625 13.80734375 -0.125 12.875 C-0.10695313 11.96492188 -0.08890625 11.05484375 -0.0703125 10.1171875 C-0.04710937 9.41851562 -0.02390625 8.71984375 0 8 C-0.66 8 -1.32 8 -2 8 C-2 6.68 -2 5.36 -2 4 C-1.34 4 -0.68 4 0 4 C0 2.68 0 1.36 0 0 Z " fill="#288B2B" transform="translate(363,321)"/>
<path d="M0 0 C1.42366111 0.50139889 2.84062729 1.02224046 4.25 1.5625 C4.95640625 1.83191406 5.6628125 2.10132813 6.390625 2.37890625 C6.92171875 2.58386719 7.4528125 2.78882813 8 3 C8 4.98 8 6.96 8 9 C5.33333333 9 2.66666667 9 0 9 C-1.2684375 9.061875 -1.2684375 9.061875 -2.5625 9.125 C-5 9 -5 9 -7 7 C-6.75 3.4375 -6.75 3.4375 -6 0 C-3.44873865 -1.27563067 -2.67674919 -0.82549382 0 0 Z " fill="#B4B4B4" transform="translate(340,345)"/>
<path d="M0 0 C3.96 0.33 7.92 0.66 12 1 C12 1.33 12 1.66 12 2 C9.69 2.33 7.38 2.66 5 3 C10.61 3.33 16.22 3.66 22 4 C22 4.66 22 5.32 22 6 C24.97 6.33 27.94 6.66 31 7 C31 7.33 31 7.66 31 8 C27.33724357 8.39673957 23.67330724 8.7174379 20 9 C19.04351562 9.07992188 18.08703125 9.15984375 17.1015625 9.2421875 C11.18205453 9.52406883 7.42451828 8.76641617 2.4609375 5.484375 C1 4 1 4 0 0 Z " fill="#E79824" transform="translate(410,317)"/>
<path d="M0 0 C6.40197234 0.53535657 10.48119325 2.74098781 15.1171875 7.1875 C15.1171875 7.5175 15.1171875 7.8475 15.1171875 8.1875 C8.03996819 8.30859311 1.14523449 8.04123239 -5.8828125 7.1875 C-3.3579882 0.33440546 -3.3579882 0.33440546 0 0 Z " fill="#F7F8F3" transform="translate(416.8828125,298.8125)"/>
<path d="M0 0 C3.3 0 6.6 0 10 0 C10 1.32 10 2.64 10 4 C8.68 4.33 7.36 4.66 6 5 C5.67 8.63 5.34 12.26 5 16 C3.35 16 1.7 16 0 16 C0 10.72 0 5.44 0 0 Z " fill="#238826" transform="translate(239,325)"/>
<path d="M0 0 C2.475 0.495 2.475 0.495 5 1 C7.72502965 0.62277985 7.72502965 0.62277985 10 0 C10 1.32 10 2.64 10 4 C8.68 4.33 7.36 4.66 6 5 C5.67 8.63 5.34 12.26 5 16 C3.35 16 1.7 16 0 16 C0 10.72 0 5.44 0 0 Z " fill="#238826" transform="translate(391,325)"/>
<path d="M0 0 C0.33 0 0.66 0 1 0 C1.33 1.98 1.66 3.96 2 6 C6.29 6.33 10.58 6.66 15 7 C14.34 8.32 13.68 9.64 13 11 C5.7725395 11.24091535 -0.90294338 10.34495828 -8 9 C-8.33 7.68 -8.66 6.36 -9 5 C-6.36 5 -3.72 5 -1 5 C-0.67 3.35 -0.34 1.7 0 0 Z " fill="#FC8127" transform="translate(409,307)"/>
<path d="M0 0 C1.21816406 0.03480469 1.21816406 0.03480469 2.4609375 0.0703125 C3.68683594 0.09738281 3.68683594 0.09738281 4.9375 0.125 C5.87722656 0.15980469 5.87722656 0.15980469 6.8359375 0.1953125 C6.5059375 1.5153125 6.1759375 2.8353125 5.8359375 4.1953125 C-0.1040625 4.6903125 -0.1040625 4.6903125 -6.1640625 5.1953125 C-5.8340625 6.5153125 -5.5040625 7.8353125 -5.1640625 9.1953125 C-9.9140625 8.3203125 -9.9140625 8.3203125 -12.1640625 7.1953125 C-12.1640625 10.4953125 -12.1640625 13.7953125 -12.1640625 17.1953125 C-10.5140625 17.1953125 -8.8640625 17.1953125 -7.1640625 17.1953125 C-7.1640625 17.5253125 -7.1640625 17.8553125 -7.1640625 18.1953125 C-9.1440625 18.1953125 -11.1240625 18.1953125 -13.1640625 18.1953125 C-13.19099825 16.07038109 -13.21042878 13.94535338 -13.2265625 11.8203125 C-13.23816406 10.63695312 -13.24976563 9.45359375 -13.26171875 8.234375 C-13.1640625 5.1953125 -13.1640625 5.1953125 -12.1640625 3.1953125 C-10.13862694 2.93811433 -8.11056026 2.68689128 -6.07421875 2.5390625 C-3.33850658 2.0467462 -2.84694924 0.25694488 0 0 Z " fill="#FF5781" transform="translate(402.1640625,301.8046875)"/>
<path d="M0 0 C1.32 0 2.64 0 4 0 C6.26273207 3.55818936 6.07331744 6.12547951 5.625 10.25 C5.51414062 11.32765625 5.40328125 12.4053125 5.2890625 13.515625 C5.19367188 14.33546875 5.09828125 15.1553125 5 16 C3.35 16 1.7 16 0 16 C0 10.72 0 5.44 0 0 Z " fill="#218724" transform="translate(251,325)"/>
<path d="M0 0 C9.70922376 0.21107008 9.70922376 0.21107008 13.25 3.5625 C15.81289341 6.31823866 15.81289341 6.31823866 19.375 6.3125 C20.24125 6.209375 21.1075 6.10625 22 6 C22.33 7.98 22.66 9.96 23 12 C19.62902617 13.49821059 17.79557881 14 14 14 C14.33 12.02 14.66 10.04 15 8 C10.15441167 4.14330724 7.2849594 2.62849594 1 2 C0.67 1.34 0.34 0.68 0 0 Z " fill="#368727" transform="translate(416,298)"/>
<path d="M0 0 C5.01571419 0.10176811 7.60248669 0.91946108 11.25 4.375 C11.25 5.695 11.25 7.015 11.25 8.375 C9.625 9.1875 9.625 9.1875 7.25 9.375 C5.80476052 8.15968498 4.36409785 6.93705186 2.9765625 5.65625 C0.0069906 3.45258579 -3.15672782 3.05648266 -6.75 2.375 C-4.28003576 -0.09496424 -3.41102667 0.05168222 0 0 Z " fill="#F9F8F2" transform="translate(424.75,295.625)"/>
<path d="M0 0 C1.670625 0.061875 1.670625 0.061875 3.375 0.125 C4.18467438 3.03982778 4.59345993 4.58613217 3.4375 7.4375 C3.086875 7.994375 2.73625 8.55125 2.375 9.125 C-0.5 9.25 -0.5 9.25 -3.625 9.125 C-5.625 7.125 -5.625 7.125 -5.875 4.625 C-5.45054733 0.38047335 -4.12667778 0.14229923 0 0 Z " fill="#148017" transform="translate(282.625,331.875)"/>
<path d="M0 0 C2.375 -0.125 2.375 -0.125 5 0 C7 2 7 2 7.1953125 5.2578125 C7.16050781 7.17207031 7.16050781 7.17207031 7.125 9.125 C7.10695313 10.40632813 7.08890625 11.68765625 7.0703125 13.0078125 C7.04710937 13.99523437 7.02390625 14.98265625 7 16 C5.68 16 4.36 16 3 16 C3 12.04 3 8.08 3 4 C1.68 3.34 0.36 2.68 -1 2 C-0.67 1.34 -0.34 0.68 0 0 Z " fill="#0C7C0F" transform="translate(267,325)"/>
<path d="M0 0 C2.625 0.375 2.625 0.375 5 1 C5.625 4.375 5.625 4.375 6 8 C4 10 4 10 1.5 10.3125 C0.2625 10.1578125 0.2625 10.1578125 -1 10 C-3 7 -3 7 -2.75 4.4375 C-2 2 -2 2 0 0 Z " fill="#565656" transform="translate(293,344)"/>
<path d="M0 0 C0.66 1.32 1.32 2.64 2 4 C2.61875 3.67 3.2375 3.34 3.875 3 C7.15195639 1.45790288 9.53975563 2.2715275 13 3 C13 4.65 13 6.3 13 8 C9.30458414 8.95024979 6.69541586 8.95024979 3 8 C3 7.34 3 6.68 3 6 C2.34 6 1.68 6 1 6 C0.67 6.99 0.34 7.98 0 9 C0 6.03 0 3.06 0 0 Z " fill="#7B7B7B" transform="translate(382,345)"/>
<path d="M0 0 C3.53571429 0.53571429 3.53571429 0.53571429 5 2 C5.1875 4.9375 5.1875 4.9375 5 8 C4.34 8.66 3.68 9.32 3 10 C-0.53571429 9.46428571 -0.53571429 9.46428571 -2 8 C-2.1875 5.0625 -2.1875 5.0625 -2 2 C-1.34 1.34 -0.68 0.68 0 0 Z " fill="#E2EFE2" transform="translate(350,328)"/>
<path d="M0 0 C6.15234375 -0.09765625 6.15234375 -0.09765625 8 0 C9 1 9 1 9.0625 4.0625 C9.041875 5.031875 9.02125 6.00125 9 7 C6 7 3 7 0 7 C0 4.69 0 2.38 0 0 Z " fill="#A7A7A7" transform="translate(237,347)"/>
<path d="M0 0 C2.97 0.495 2.97 0.495 6 1 C6.09765625 7.15234375 6.09765625 7.15234375 6 9 C5.67 9.33 5.34 9.66 5 10 C3.35 10 1.7 10 0 10 C0 6.7 0 3.4 0 0 Z " fill="#838383" transform="translate(260,344)"/>
<path d="M0 0 C2.0625 0.4375 2.0625 0.4375 4 1 C4.625 3.8125 4.625 3.8125 5 7 C4.01 8.485 4.01 8.485 3 10 C-0.875 9.125 -0.875 9.125 -2 8 C-1.28 1.28 -1.28 1.28 0 0 Z " fill="#E8F2E8" transform="translate(379,328)"/>
<path d="M0 0 C0.78375 0.04125 1.5675 0.0825 2.375 0.125 C2.375 3.095 2.375 6.065 2.375 9.125 C0.725 9.455 -0.925 9.785 -2.625 10.125 C-2.955 9.465 -3.285 8.805 -3.625 8.125 C-1.645 8.62 -1.645 8.62 0.375 9.125 C0.375 8.465 0.375 7.805 0.375 7.125 C-0.945 6.795 -2.265 6.465 -3.625 6.125 C-4.25 4.25 -4.25 4.25 -4.625 2.125 C-2.625 0.125 -2.625 0.125 0 0 Z " fill="#515151" transform="translate(220.625,346.875)"/>
<path d="M0 0 C3 1 3 1 4.1875 3.0625 C4.455625 3.701875 4.72375 4.34125 5 5 C5.45375 4.175 5.9075 3.35 6.375 2.5 C6.91125 1.675 7.4475 0.85 8 0 C8.66 0 9.32 0 10 0 C10 2.97 10 5.94 10 9 C9.34 7.68 8.68 6.36 8 5 C7.34 6.32 6.68 7.64 6 9 C5.34 9 4.68 9 4 9 C3.67 8.34 3.34 7.68 3 7 C2.67 7.66 2.34 8.32 2 9 C1.34 9 0.68 9 0 9 C0 6.03 0 3.06 0 0 Z " fill="#4A4A4A" transform="translate(358,345)"/>
<path d="M0 0 C1.670625 0.061875 1.670625 0.061875 3.375 0.125 C3.375 0.785 3.375 1.445 3.375 2.125 C1.725 2.455 0.075 2.785 -1.625 3.125 C-1.295 4.115 -0.965 5.105 -0.625 6.125 C0.035 6.455 0.695 6.785 1.375 7.125 C1.375 7.785 1.375 8.445 1.375 9.125 C-1 9.25 -1 9.25 -3.625 9.125 C-5.625 7.125 -5.625 7.125 -5.875 4.625 C-5.45054733 0.38047335 -4.12667778 0.14229923 0 0 Z " fill="#0F7E12" transform="translate(227.625,331.875)"/>
<path d="M0 0 C-0.33 1.32 -0.66 2.64 -1 4 C-6.94 4.495 -6.94 4.495 -13 5 C-13 3 -13 3 -11.5625 1.375 C-7.78022773 -0.65451195 -4.20719164 -0.24272259 0 0 Z " fill="#FFF8FA" transform="translate(409,302)"/>
<path d="M0 0 C4.29 0 8.58 0 13 0 C12.34 1.32 11.68 2.64 11 4 C8.03 4 5.06 4 2 4 C1.34 2.68 0.68 1.36 0 0 Z " fill="#F2F6EF" transform="translate(411,314)"/>
<path d="M0 0 C4.94250003 1.12971429 6.61051793 3.88363003 9.1796875 7.9296875 C10.15888198 10.40098785 9.89261848 11.5425442 9 14 C7.5 12.625 7.5 12.625 6 11 C6 10.34 6 9.68 6 9 C5.34 8.67 4.68 8.34 4 8 C3.33333333 6.66666667 2.66666667 5.33333333 2 4 C0.4587688 2.29078411 0.4587688 2.29078411 -1 1 C-0.67 0.67 -0.34 0.34 0 0 Z " fill="#F49820" transform="translate(432,295)"/>
<path d="M0 0 C0.33 0 0.66 0 1 0 C1.14285714 8.57142857 1.14285714 8.57142857 0 12 C-2.31 12 -4.62 12 -7 12 C-6.57847656 11.38511719 -6.15695312 10.77023437 -5.72265625 10.13671875 C-4.90087891 8.92435547 -4.90087891 8.92435547 -4.0625 7.6875 C-3.51722656 6.88699219 -2.97195313 6.08648437 -2.41015625 5.26171875 C-0.86162674 2.9741857 -0.86162674 2.9741857 0 0 Z " fill="#28871F" transform="translate(441,312)"/>
<path d="M0 0 C1.67542976 0.28604898 3.34385343 0.61781233 5 1 C5 2.65 5 4.3 5 6 C3.34385343 6.38218767 1.67542976 6.71395102 0 7 C-1 6 -1 6 -1.125 3.5 C-1 1 -1 1 0 0 Z " fill="#7A7A7A" transform="translate(323,347)"/>
<path d="M0 0 C1.65 0.33 3.3 0.66 5 1 C5 2.98 5 4.96 5 7 C3.35 7 1.7 7 0 7 C0 4.66666667 0 2.33333333 0 0 Z " fill="#717171" transform="translate(343,347)"/>
<path d="M0 0 C1.66611905 -0.042721 3.33382885 -0.04063832 5 0 C6 1 6 1 6.0625 4.0625 C6.041875 5.031875 6.02125 6.00125 6 7 C4.02 7 2.04 7 0 7 C0 5.68 0 4.36 0 3 C1.32 3 2.64 3 4 3 C4 2.34 4 1.68 4 1 C2.68 1.33 1.36 1.66 0 2 C0 1.34 0 0.68 0 0 Z " fill="#707070" transform="translate(370,347)"/>
<path d="M0 0 C0.66 1.32 1.32 2.64 2 4 C3.32 3.34 4.64 2.68 6 2 C6.33 3.98 6.66 5.96 7 8 C5.68 8 4.36 8 3 8 C3 7.34 3 6.68 3 6 C2.34 6 1.68 6 1 6 C0.67 6.99 0.34 7.98 0 9 C0 6.03 0 3.06 0 0 Z " fill="#757575" transform="translate(382,345)"/>
<path d="M0 0 C1.32 0 2.64 0 4 0 C4.33 1.32 4.66 2.64 5 4 C3.35 4 1.7 4 0 4 C0 4.66 0 5.32 0 6 C1.32 5.67 2.64 5.34 4 5 C4 5.66 4 6.32 4 7 C2.35 7 0.7 7 -1 7 C-1.625 4.625 -1.625 4.625 -2 2 C-1.34 1.34 -0.68 0.68 0 0 Z " fill="#666666" transform="translate(226,347)"/>
<path d="M0 0 C1.32 0 2.64 0 4 0 C4 1.98 4 3.96 4 6 C2.0625 6.5625 2.0625 6.5625 0 7 C-1 6 -1 6 -1.125 3.5 C-1 1 -1 1 0 0 Z " fill="#FBFBFB" transform="translate(293,346)"/>
<path d="M0 0 C4.95 0 9.9 0 15 0 C12.68158481 2.31841519 11.79629678 2.41740489 8.625 2.8125 C7.46871094 2.97685547 7.46871094 2.97685547 6.2890625 3.14453125 C4 3 4 3 0 0 Z " fill="#E9E7D0" transform="translate(417,321)"/>
<path d="M0 0 C1.67542976 0.28604898 3.34385343 0.61781233 5 1 C5 1.99 5 2.98 5 4 C4.01 4.495 4.01 4.495 3 5 C3.66 5.33 4.32 5.66 5 6 C3.34385343 6.38218767 1.67542976 6.71395102 0 7 C-1 6 -1 6 -1.125 3.5 C-1 1 -1 1 0 0 Z " fill="#636363" transform="translate(269,347)"/>
<path d="M0 0 C0.66 0 1.32 0 2 0 C2 3.3 2 6.6 2 10 C1.01 9.67 0.02 9.34 -1 9 C-2.1875 6.4375 -2.1875 6.4375 -3 4 C-2.01 4.495 -2.01 4.495 -1 5 C-0.67 3.35 -0.34 1.7 0 0 Z " fill="#626262" transform="translate(210,344)"/>
<path d="M0 0 C1.65 0.33 3.3 0.66 5 1 C5 2.98 5 4.96 5 7 C3.35 7 1.7 7 0 7 C0.99 6.67 1.98 6.34 3 6 C3 5.34 3 4.68 3 4 C2.01 3.67 1.02 3.34 0 3 C0.99 3 1.98 3 3 3 C3 2.34 3 1.68 3 1 C1.68 1.33 0.36 1.66 -1 2 C-0.67 1.34 -0.34 0.68 0 0 Z " fill="#474747" transform="translate(241,347)"/>
<path d="M0 0 C0.66 0.33 1.32 0.66 2 1 C3.53668865 1.22467831 5.07968054 1.40796805 6.625 1.5625 C7.44226563 1.64628906 8.25953125 1.73007812 9.1015625 1.81640625 C9.72804688 1.87699219 10.35453125 1.93757813 11 2 C11 2.33 11 2.66 11 3 C6.38 3.33 1.76 3.66 -3 4 C-3 3.01 -3 2.02 -3 1 C-2.01 0.67 -1.02 0.34 0 0 Z " fill="#CAA84B" transform="translate(430,322)"/>
<path d="M0 0 C2.64 0 5.28 0 8 0 C8 0.99 8 1.98 8 3 C5.69 3 3.38 3 1 3 C0.67 2.01 0.34 1.02 0 0 Z " fill="#FFDBE3" transform="translate(400,312)"/>
<path d="M0 0 C1.45823212 -0.0270043 2.91660675 -0.04639787 4.375 -0.0625 C5.18710937 -0.07410156 5.99921875 -0.08570313 6.8359375 -0.09765625 C9 0 9 0 11 1 C10.67 1.99 10.34 2.98 10 4 C7.03 3.67 4.06 3.34 1 3 C0.67 2.01 0.34 1.02 0 0 Z " fill="#FFA63D" transform="translate(421,293)"/>
<path d="M0 0 C-0.33 1.32 -0.66 2.64 -1 4 C-2.65 4 -4.3 4 -6 4 C-6 3.01 -6 2.02 -6 1 C-4 0 -4 0 0 0 Z " fill="#D8EAD8" transform="translate(287,334)"/>
<path d="M0 0 C1.60517097 0.08733576 3.20921662 0.19552224 4.8125 0.3125 C6.15248047 0.39951172 6.15248047 0.39951172 7.51953125 0.48828125 C10.30604 1.06313581 11.24135754 1.8206856 13 4 C10.26142837 4 8.03963261 3.68917303 5.375 3.125 C4.57835937 2.96257812 3.78171875 2.80015625 2.9609375 2.6328125 C2.31382812 2.42398437 1.66671875 2.21515625 1 2 C0.67 1.34 0.34 0.68 0 0 Z " fill="#679D51" transform="translate(416,298)"/>
<path d="M0 0 C1.65 0.99 3.3 1.98 5 3 C4.67 3.99 4.34 4.98 4 6 C2.68 6 1.36 6 0 6 C0 4.02 0 2.04 0 0 Z " fill="#696969" transform="translate(249,348)"/>
<path d="M0 0 C0 0.99 0 1.98 0 3 C-1.98 3.33 -3.96 3.66 -6 4 C-6 3.01 -6 2.02 -6 1 C-4 0 -4 0 0 0 Z " fill="#DCECDD" transform="translate(232,334)"/>
<path d="M0 0 C1.32 0.33 2.64 0.66 4 1 C3.67 1.99 3.34 2.98 3 4 C1.35 3.67 -0.3 3.34 -2 3 C-1.34 2.01 -0.68 1.02 0 0 Z " fill="#D0E6D1" transform="translate(283,328)"/>
<path d="M0 0 C2.31 0 4.62 0 7 0 C6.67 0.66 6.34 1.32 6 2 C3.67843403 2.40729228 1.3431213 2.74438677 -1 3 C-0.67 2.01 -0.34 1.02 0 0 Z " fill="#EEF5ED" transform="translate(431,309)"/>
<path d="M0 0 C1.32 0.33 2.64 0.66 4 1 C3.67 2.32 3.34 3.64 3 5 C2.01 4.67 1.02 4.34 0 4 C0 2.68 0 1.36 0 0 Z " fill="#E5E5E5" transform="translate(218,348)"/>
<path d="M0 0 C1.65 0.33 3.3 0.66 5 1 C5 1.66 5 2.32 5 3 C3.35 3.33 1.7 3.66 0 4 C-0.33 3.34 -0.66 2.68 -1 2 C-0.67 1.34 -0.34 0.68 0 0 Z " fill="#D0E6D1" transform="translate(227,328)"/>
</svg>
