<?xml version="1.0" encoding="UTF-8"?>
<svg version="1.1" viewBox="0 0 2048 1146" width="1280" height="1280" xmlns="http://www.w3.org/2000/svg">
<path transform="translate(1243,428)" d="m0 0h46l19 2 21 7 11 7 8 8 6 10 4 11 1 9v121l-1 10 6-2 11-21 8-17 10-19 16-31 1-4-14-26-12-22-14-27-5-9v-2h79l3 4 8 20 13 30 2 4h2l3-12 15-45 2-1h79l-2 6-22 45-16 32-1 4 8 16 13 25 10 19 15 28 5 9v3l-73 1-5-2-8-16-11-23-13-26-2-1-2 5-25 55-3 7h-156l-1-2-1-12-5 2-11 9-10 5-15 4-6 1h-19l-18-6-13-7-10-10-7-13-3-13v-19l4-15 7-12 8-8 10-7 11-5 15-4 18-3 43-2-1-22-3-8-3-2-6-1h-11l-5 2-5 9-3 7h-70l-2-5 4-14 8-14 6-7 15-10 15-6 15-3zm16 111-10 4-7 6-4 8v7l4 10 6 5 7 2h9l10-5 5-8 2-9v-14l-3-5-2-1z" fill="#021851"/>
<path transform="translate(986,426)" d="m0 0h17l16 4 11 7 9 9 7 10 2 1 7-11 7-8 10-7 10-4 6-1h16l14 3 10 5 9 8 8 13 5 16 1 10v139h-74l-1-1-1-119-3-10-3-6-3-2h-7l-6 4-4 6-1 3-1 124-1 1h-75l-1-2v-117l-3-13-3-5-2-1-9 1-7 6-2 3-1 127-2 1h-73l-2-6v-145l1-37h73l2 2v23l6-4 7-9 9-9 10-6z" fill="#021851"/>
<path transform="translate(671,432)" d="m0 0h77l54 1 16 2 9 3 11 9 6 9 3 8 2 11v9l-3 15-6 10-9 8-12 4h-3l5 5 11 6 8 9 4 10 4 24 5 41-1 4h-73l-1-1-6-50-3-12-1-2-3-1h-20v65l-2 1h-70l-2-23zm74 41-1 11v25l1 2h12l9-2 8-7 3-6v-11l-6-7-10-4-6-1z" fill="#021851"/>
<path transform="translate(508,431)" d="m0 0h98l3 7 12 39 15 47 20 61 8 28 2 6-2 1h-76l-5-25-2-5-54-1-4 18-3 11-2 2h-69l-1-4 12-36 15-47 13-41 18-57zm47 46-3 6-13 53-1 8 2 1h31l-2-11-8-37-3-18-1-2z" fill="#021851"/>
<path transform="translate(357,426)" d="m0 0h16l20 2 15 4 12 5 9 6 10 9 7 10 5 12 5 20v5l-1 1-17 1h-50l-8-20-1-3-6-2h-10l-6 3-6 8-2 6-2 18v31l2 17 4 10 5 4 6 3h7l6-4 3-3 2-7 1-9 1-1 39-1h20l12 1 1 2-5 22-4 9-6 10-9 10-10 7-14 7-22 5-7 1h-29l-21-4-13-5-9-5-11-9-9-10-8-13-6-15-4-18-1-8v-28l3-15 5-16 8-15 8-10 7-7 11-8 15-7 17-4z" fill="#031951"/>
<path transform="translate(1059,676)" d="m0 0h146l3 1v41l-1 1h-148l-1-1v-41z" fill="#FBCE1A"/>
<path transform="translate(1251,676)" d="m0 0h148l1 1v40l-2 2h-147l-1-1v-40z" fill="#FDD11A"/>
<path transform="translate(867,676)" d="m0 0h138l11 1v41l-1 1h-147l-1-1z" fill="#FDD01A"/>
<path transform="translate(1443,676)" d="m0 0h147l1 1v40l-2 2h-145l-1-1z" fill="#FDD11A"/>
<path transform="translate(1635,676)" d="m0 0h145v41l-2 2-137 1-5-1-1-2z" fill="#FDD11A"/>
<path transform="translate(1594,431)" d="m0 0 7 1h2 11l6 4 3 6 1 9-2 8-7 7-7 3h-12l-6-3-5-6-1-3v-12l3-9 4-4zm10 3 2 10 3 10h-5l-2-2-2-16-1-1h-6l-4 5-3 7 1 9 4 7 5 3h10l9-4 4-5 1-10-2-8-4-4z" fill="#0E2359"/>
</svg>
