<?xml version="1.0" encoding="UTF-8"?>
<svg version="1.1" xmlns="http://www.w3.org/2000/svg" width="500" height="500">
<path d="M0 0 C0.61875 0.53625 1.2375 1.0725 1.875 1.625 C1.875 2.285 1.875 2.945 1.875 3.625 C2.535 3.625 3.195 3.625 3.875 3.625 C5.0232685 5.921537 4.99061175 7.20813167 4.97265625 9.7578125 C4.96782227 10.96630859 4.96782227 10.96630859 4.96289062 12.19921875 C4.95032227 13.46185547 4.95032227 13.46185547 4.9375 14.75 C4.93298828 15.59949219 4.92847656 16.44898438 4.92382812 17.32421875 C4.91202874 19.42450909 4.89409306 21.5247633 4.875 23.625 C2.895 23.955 0.915 24.285 -1.125 24.625 C-0.31610952 27.10539849 0.49691901 29.58430212 1.3125 32.0625 C1.54259766 32.76955078 1.77269531 33.47660156 2.00976562 34.20507812 C2.94921147 37.68806795 2.94921147 37.68806795 4.875 40.625 C5 43.625 5 43.625 4.875 46.625 C3.875 47.625 3.875 47.625 1.3125 47.6875 C0.508125 47.666875 -0.29625 47.64625 -1.125 47.625 C-5.53274487 33.02818907 -5.53274487 33.02818907 -6.125 25.625 C-8.765 25.295 -11.405 24.965 -14.125 24.625 C-14.98476645 27.20429934 -15.17212208 28.45364699 -14.4375 31.125 C-14.125 33.625 -14.125 33.625 -15.625 36 C-18.125 37.625 -18.125 37.625 -21.875 37.375 C-22.9475 37.1275 -24.02 36.88 -25.125 36.625 C-25.82574844 33.471632 -26.125 30.89775026 -26.125 27.625 C-27.445 27.625 -28.765 27.625 -30.125 27.625 C-30.125 30.595 -30.125 33.565 -30.125 36.625 C-31.775 36.625 -33.425 36.625 -35.125 36.625 C-35.455 35.635 -35.785 34.645 -36.125 33.625 C-38.46787418 36.29747634 -38.46787418 36.29747634 -39.125 39.625 C-35.495 39.295 -31.865 38.965 -28.125 38.625 C-27.14891783 41.55324652 -27.04273332 43.58113276 -27.125 46.625 C-32.0457416 47.56726967 -36.05999789 47.47827759 -41.01171875 46.8125 C-43.26108791 46.5214311 -43.26108791 46.5214311 -46 47.125 C-50.75780809 47.88624929 -55.36198173 47.1758829 -60.125 46.625 C-60.125 43.655 -60.125 40.685 -60.125 37.625 C-58.475 38.285 -56.825 38.945 -55.125 39.625 C-55.125 38.635 -55.125 37.645 -55.125 36.625 C-55.455 36.295 -55.785 35.965 -56.125 35.625 C-56.26615161 32.95441149 -56.16747107 30.30067762 -56.125 27.625 C-56.785 27.625 -57.445 27.625 -58.125 27.625 C-58.063125 28.553125 -58.00125 29.48125 -57.9375 30.4375 C-58.125 33.625 -58.125 33.625 -59.3125 35.4375 C-61.60068222 36.93665387 -63.41079657 37.35357966 -66.125 37.625 C-69.125 36.625 -69.125 36.625 -71.125 33.625 C-71.455 34.615 -71.785 35.605 -72.125 36.625 C-73.775 36.625 -75.425 36.625 -77.125 36.625 C-77.62 35.14 -77.62 35.14 -78.125 33.625 C-78.455 34.615 -78.785 35.605 -79.125 36.625 C-80.775 36.625 -82.425 36.625 -84.125 36.625 C-84.455 35.965 -84.785 35.305 -85.125 34.625 C-85.455 35.285 -85.785 35.945 -86.125 36.625 C-87.775 36.625 -89.425 36.625 -91.125 36.625 C-91.125 30.685 -91.125 24.745 -91.125 18.625 C-89.145 18.625 -87.165 18.625 -85.125 18.625 C-84.135 20.935 -83.145 23.245 -82.125 25.625 C-79.90310176 23.40310176 -79.19901108 21.54017292 -78.125 18.625 C-76.145 18.625 -74.165 18.625 -72.125 18.625 C-71.795 20.935 -71.465 23.245 -71.125 25.625 C-70.465 24.965 -69.805 24.305 -69.125 23.625 C-67.1015625 23.4296875 -67.1015625 23.4296875 -64.75 23.5 C-63.97914063 23.51804688 -63.20828125 23.53609375 -62.4140625 23.5546875 C-61.65867187 23.57789063 -60.90328125 23.60109375 -60.125 23.625 C-58.805 23.625 -57.485 23.625 -56.125 23.625 C-56.125 22.305 -56.125 20.985 -56.125 19.625 C-54.475 19.955 -52.825 20.285 -51.125 20.625 C-51.125 21.615 -51.125 22.605 -51.125 23.625 C-49.02851482 23.625 -46.93143434 23.6190543 -44.8359375 23.5546875 C-43.67964844 23.52761719 -43.67964844 23.52761719 -42.5 23.5 C-41.72398437 23.47679687 -40.94796875 23.45359375 -40.1484375 23.4296875 C-38.125 23.625 -38.125 23.625 -36.125 25.625 C-35.795 24.965 -35.465 24.305 -35.125 23.625 C-34.48433594 23.63660156 -33.84367187 23.64820313 -33.18359375 23.66015625 C-28.03846778 23.71383119 -23.19475076 23.50669578 -18.125 22.625 C-19.115 20.645 -19.115 20.645 -20.125 18.625 C-21.77130328 18.76542877 -23.41704179 18.91249329 -25.0625 19.0625 C-25.97902344 19.14371094 -26.89554687 19.22492188 -27.83984375 19.30859375 C-30.08659732 19.38544976 -30.08659732 19.38544976 -31.125 20.625 C-32.775 20.625 -34.425 20.625 -36.125 20.625 C-36.125 16.335 -36.125 12.045 -36.125 7.625 C-30.27582126 5.14110218 -25.41675533 3.52382219 -19.125 2.625 C-17.3738427 1.2083253 -17.3738427 1.2083253 -16.125 -0.375 C-10.78770554 -2.15409815 -5.1702132 -2.27489381 0 0 Z M-10.125 1.625 C-8.71470126 4.44559747 -7.04608419 4.60601714 -4.125 5.625 C-2.79823492 5.98358516 -1.46664079 6.3268576 -0.125 6.625 C-3.20499946 2.95269295 -5.3732602 2.05697635 -10.125 1.625 Z M-15.125 4.625 C-16.61 6.605 -16.61 6.605 -18.125 8.625 C-14.165 8.955 -10.205 9.285 -6.125 9.625 C-5.795 8.965 -5.465 8.305 -5.125 7.625 C-9.93709901 5.33454986 -9.93709901 5.33454986 -15.125 4.625 Z M-26.125 6.625 C-26.785 7.285 -27.445 7.945 -28.125 8.625 C-26.145 8.625 -24.165 8.625 -22.125 8.625 C-22.125 7.965 -22.125 7.305 -22.125 6.625 C-23.445 6.625 -24.765 6.625 -26.125 6.625 Z M-17.125 16.625 C-17.125 16.955 -17.125 17.285 -17.125 17.625 C-15.145 17.625 -13.165 17.625 -11.125 17.625 C-11.125 17.295 -11.125 16.965 -11.125 16.625 C-13.105 16.625 -15.085 16.625 -17.125 16.625 Z M-66.125 27.625 C-65.795 29.275 -65.465 30.925 -65.125 32.625 C-64.465 32.295 -63.805 31.965 -63.125 31.625 C-63.125 30.305 -63.125 28.985 -63.125 27.625 C-64.115 27.625 -65.105 27.625 -66.125 27.625 Z M-51.125 27.625 C-51.125 29.275 -51.125 30.925 -51.125 32.625 C-50.465 32.625 -49.805 32.625 -49.125 32.625 C-49.125 30.975 -49.125 29.325 -49.125 27.625 C-49.785 27.625 -50.445 27.625 -51.125 27.625 Z M-44.125 27.625 C-43.795 29.275 -43.465 30.925 -43.125 32.625 C-42.465 32.295 -41.805 31.965 -41.125 31.625 C-41.125 30.305 -41.125 28.985 -41.125 27.625 C-42.115 27.625 -43.105 27.625 -44.125 27.625 Z M-21.125 31.625 C-21.125 32.285 -21.125 32.945 -21.125 33.625 C-20.465 33.295 -19.805 32.965 -19.125 32.625 C-19.785 32.295 -20.445 31.965 -21.125 31.625 Z M-49.125 33.625 C-49.785 35.605 -50.445 37.585 -51.125 39.625 C-46.59359347 40.55880961 -46.59359347 40.55880961 -42.125 39.625 C-42.125 38.965 -42.125 38.305 -42.125 37.625 C-43.094375 37.33625 -44.06375 37.0475 -45.0625 36.75 C-48.125 35.625 -48.125 35.625 -49.125 33.625 Z " fill="#358439" transform="translate(335.125,226.375)"/>
<path d="M0 0 C0.928125 0.804375 0.928125 0.804375 1.875 1.625 C1.875 2.285 1.875 2.945 1.875 3.625 C2.535 3.625 3.195 3.625 3.875 3.625 C5.0232685 5.921537 4.99061175 7.20813167 4.97265625 9.7578125 C4.96943359 10.56347656 4.96621094 11.36914062 4.96289062 12.19921875 C4.95032227 13.46185547 4.95032227 13.46185547 4.9375 14.75 C4.93298828 15.59949219 4.92847656 16.44898438 4.92382812 17.32421875 C4.91202874 19.42450909 4.89409306 21.5247633 4.875 23.625 C1.905 24.12 1.905 24.12 -1.125 24.625 C-0.31610952 27.10539849 0.49691901 29.58430212 1.3125 32.0625 C1.54259766 32.76955078 1.77269531 33.47660156 2.00976562 34.20507812 C2.94921147 37.68806795 2.94921147 37.68806795 4.875 40.625 C5 43.625 5 43.625 4.875 46.625 C3.875 47.625 3.875 47.625 1.3125 47.6875 C0.508125 47.666875 -0.29625 47.64625 -1.125 47.625 C-5.53274487 33.02818907 -5.53274487 33.02818907 -6.125 25.625 C-11.6094267 24.88169086 -11.6094267 24.88169086 -17.125 24.625 C-20.125 21.29166667 -20.125 21.29166667 -20.125 18.625 C-21.77130328 18.76542877 -23.41704179 18.91249329 -25.0625 19.0625 C-25.97902344 19.14371094 -26.89554687 19.22492188 -27.83984375 19.30859375 C-30.08659732 19.38544976 -30.08659732 19.38544976 -31.125 20.625 C-32.775 20.625 -34.425 20.625 -36.125 20.625 C-36.125 16.335 -36.125 12.045 -36.125 7.625 C-30.27582126 5.14110218 -25.41675533 3.52382219 -19.125 2.625 C-17.3738427 1.2083253 -17.3738427 1.2083253 -16.125 -0.375 C-10.78770554 -2.15409815 -5.1702132 -2.27489381 0 0 Z M-10.125 1.625 C-8.71470126 4.44559747 -7.04608419 4.60601714 -4.125 5.625 C-2.79823492 5.98358516 -1.46664079 6.3268576 -0.125 6.625 C-3.20499946 2.95269295 -5.3732602 2.05697635 -10.125 1.625 Z M-15.125 4.625 C-16.61 6.605 -16.61 6.605 -18.125 8.625 C-14.165 8.955 -10.205 9.285 -6.125 9.625 C-5.795 8.965 -5.465 8.305 -5.125 7.625 C-9.93709901 5.33454986 -9.93709901 5.33454986 -15.125 4.625 Z M-26.125 6.625 C-26.785 7.285 -27.445 7.945 -28.125 8.625 C-26.145 8.625 -24.165 8.625 -22.125 8.625 C-22.125 7.965 -22.125 7.305 -22.125 6.625 C-23.445 6.625 -24.765 6.625 -26.125 6.625 Z M-17.125 16.625 C-17.125 16.955 -17.125 17.285 -17.125 17.625 C-15.145 17.625 -13.165 17.625 -11.125 17.625 C-11.125 17.295 -11.125 16.965 -11.125 16.625 C-13.105 16.625 -15.085 16.625 -17.125 16.625 Z " fill="#C98E3C" transform="translate(335.125,226.375)"/>
<path d="M0 0 C2.5 2.5625 2.5 2.5625 4 5 C4.33 4.67 4.66 4.34 5 4 C6.49738124 3.9020943 7.99942892 3.87025136 9.5 3.875 C10.3146875 3.87242187 11.129375 3.86984375 11.96875 3.8671875 C14 4 14 4 15 5 C15.07244053 7.01964199 15.08377188 9.04167124 15.0625 11.0625 C15.05347656 12.16722656 15.04445312 13.27195312 15.03515625 14.41015625 C15.02355469 15.26480469 15.01195312 16.11945313 15 17 C11.98735648 17.59222907 9.07583023 18.05823431 6 18 C3.4375 16.0625 3.4375 16.0625 2 14 C1.01 15.32 0.02 16.64 -1 18 C-0.67 18.66 -0.34 19.32 0 20 C4.95 20 9.9 20 15 20 C15 19.34 15 18.68 15 18 C15.66 18 16.32 18 17 18 C17 18.66 17 19.32 17 20 C18.98 20 20.96 20 23 20 C23 19.34 23 18.68 23 18 C23.66 18 24.32 18 25 18 C25 18.66 25 19.32 25 20 C26.32 20 27.64 20 29 20 C29.495 22.97 29.495 22.97 30 26 C28.1875 27.0625 28.1875 27.0625 26 28 C25.01 27.67 24.02 27.34 23 27 C22.0409375 27.2475 22.0409375 27.2475 21.0625 27.5 C18.68227266 28.07702481 17.30293321 27.74022853 15 27 C14.67 25.68 14.34 24.36 14 23 C13.67 24.32 13.34 25.64 13 27 C7.25 28 7.25 28 5 28 C4.67 28.33 4.34 28.66 4 29 C2.33382885 29.04063832 0.66611905 29.042721 -1 29 C-1 28.34 -1 27.68 -1 27 C-1.78375 27 -2.5675 27 -3.375 27 C-5.91666667 27 -8.45833333 27 -11 27 C-11 24.03 -11 21.06 -11 18 C-9.68 18.33 -8.36 18.66 -7 19 C-7.66 18.54625 -8.32 18.0925 -9 17.625 C-9.66 17.08875 -10.32 16.5525 -11 16 C-11 15.34 -11 14.68 -11 14 C-11.66 14 -12.32 14 -13 14 C-14.55024464 10.89951072 -14.28992015 8.42105782 -14 5 C-10.17798951 -0.86041609 -6.75455011 -2.0156859 0 0 Z M-7 4 C-8.21297649 6.2806707 -8.21297649 6.2806707 -9 9 C-8.23396041 11.2857711 -8.23396041 11.2857711 -7 13 C-5.68 12.67 -4.36 12.34 -3 12 C-3 11.34 -3 10.68 -3 10 C-1.329375 10.061875 -1.329375 10.061875 0.375 10.125 C4.04366025 10.41121859 4.04366025 10.41121859 6 8 C3.03 7.67 0.06 7.34 -3 7 C-3 6.01 -3 5.02 -3 4 C-4.32 4 -5.64 4 -7 4 Z M8 12 C8.33 12.66 8.66 13.32 9 14 C9.33 13.34 9.66 12.68 10 12 C9.34 12 8.68 12 8 12 Z " fill="#708072" transform="translate(167,246)"/>
<path d="M0 0 C1.98 0 3.96 0 6 0 C6.99 2.31 7.98 4.62 9 7 C11.22189824 4.77810176 11.92598892 2.91517292 13 0 C14.98 0 16.96 0 19 0 C19.33 2.31 19.66 4.62 20 7 C20.66 6.34 21.32 5.68 22 5 C24.0234375 4.8046875 24.0234375 4.8046875 26.375 4.875 C27.14585937 4.89304688 27.91671875 4.91109375 28.7109375 4.9296875 C29.46632813 4.95289063 30.22171875 4.97609375 31 5 C32.32 5 33.64 5 35 5 C35 3.68 35 2.36 35 1 C37.475 1.495 37.475 1.495 40 2 C40.495 4.97 40.495 4.97 41 8 C40.34 8 39.68 8 39 8 C39.495 12.455 39.495 12.455 40 17 C38.35 17 36.7 17 35 17 C35 14.36 35 11.72 35 9 C34.34 9 33.68 9 33 9 C33.061875 9.928125 33.12375 10.85625 33.1875 11.8125 C33 15 33 15 31.8125 16.8125 C29.52431778 18.31165387 27.71420343 18.72857966 25 19 C22 18 22 18 20 15 C19.67 15.99 19.34 16.98 19 18 C17.35 18 15.7 18 14 18 C13.67 17.01 13.34 16.02 13 15 C12.67 15.99 12.34 16.98 12 18 C10.35 18 8.7 18 7 18 C6.67 17.34 6.34 16.68 6 16 C5.67 16.66 5.34 17.32 5 18 C3.35 18 1.7 18 0 18 C0 12.06 0 6.12 0 0 Z M25 9 C25.33 10.65 25.66 12.3 26 14 C26.66 13.67 27.32 13.34 28 13 C28 11.68 28 10.36 28 9 C27.01 9 26.02 9 25 9 Z " fill="#47A04A" transform="translate(244,245)"/>
<path d="M0 0 C0.99 0 1.98 0 3 0 C3.66 0.66 4.32 1.32 5 2 C6.64991582 2.70710678 8.31562256 3.37943989 10 4 C10 5.65 10 7.3 10 9 C8.68 9.33 7.36 9.66 6 10 C5.34 8.02 4.68 6.04 4 4 C2.35 4 0.7 4 -1 4 C-1 5.65 -1 7.3 -1 9 C-0.01 8.67 0.98 8.34 2 8 C0.125 13.75 0.125 13.75 -1 16 C1.97 16 4.94 16 8 16 C8 15.34 8 14.68 8 14 C7.34 13.67 6.68 13.34 6 13 C8.475 13.495 8.475 13.495 11 14 C11 14.66 11 15.32 11 16 C14.63 15.67 18.26 15.34 22 15 C22.97608217 17.92824652 23.08226668 19.95613276 23 23 C18.0792584 23.94226967 14.06500211 23.85327759 9.11328125 23.1875 C6.86391209 22.8964311 6.86391209 22.8964311 4.125 23.5 C-0.63280809 24.26124929 -5.23698173 23.5508829 -10 23 C-10 20.03 -10 17.06 -10 14 C-7.525 14.99 -7.525 14.99 -5 16 C-5 15.01 -5 14.02 -5 13 C-3.68 12.67 -2.36 12.34 -1 12 C-1.33 11.34 -1.66 10.68 -2 10 C-2.04022391 7.6670134 -2.04320247 5.33293334 -2 3 C-1.34 3 -0.68 3 0 3 C0 2.01 0 1.02 0 0 Z M6 4 C6.33 5.65 6.66 7.3 7 9 C7.66 8.67 8.32 8.34 9 8 C9 6.68 9 5.36 9 4 C8.01 4 7.02 4 6 4 Z " fill="#B1B7B3" transform="translate(285,250)"/>
<path d="M0 0 C1.37478516 0.01740234 1.37478516 0.01740234 2.77734375 0.03515625 C3.69644531 0.04417969 4.61554688 0.05320313 5.5625 0.0625 C6.27277344 0.07410156 6.98304688 0.08570313 7.71484375 0.09765625 C8.37484375 3.06765625 9.03484375 6.03765625 9.71484375 9.09765625 C10.78834166 4.8036646 10.51167191 3.90270412 8.71484375 0.09765625 C13.04817708 0.09765625 17.38151042 0.09765625 21.71484375 0.09765625 C21.34359375 1.12890625 20.97234375 2.16015625 20.58984375 3.22265625 C19.63947869 7.4314158 20.01214804 9.21929381 21.71484375 13.09765625 C19.33984375 13.22265625 19.33984375 13.22265625 16.71484375 13.09765625 C16.05484375 12.43765625 15.39484375 11.77765625 14.71484375 11.09765625 C14.38484375 11.75765625 14.05484375 12.41765625 13.71484375 13.09765625 C11.20389772 13.43857572 8.80008205 13.65703935 6.27734375 13.78515625 C5.58318359 13.83220703 4.88902344 13.87925781 4.17382812 13.92773438 C-1.01248309 14.23399283 -1.01248309 14.23399283 -3.28515625 13.09765625 C-3.31202178 11.11856227 -3.33149 9.13936654 -3.34765625 7.16015625 C-3.35925781 6.05800781 -3.37085938 4.95585937 -3.3828125 3.8203125 C-3.25076835 0.13892172 -3.25076835 0.13892172 0 0 Z M0.71484375 8.09765625 C0.71484375 8.75765625 0.71484375 9.41765625 0.71484375 10.09765625 C1.70484375 9.76765625 2.69484375 9.43765625 3.71484375 9.09765625 C2.72484375 8.76765625 1.73484375 8.43765625 0.71484375 8.09765625 Z " fill="#308633" transform="translate(216.28515625,249.90234375)"/>
<path d="M0 0 C0.66 0 1.32 0 2 0 C2.33 0.66 2.66 1.32 3 2 C7.95 2 12.9 2 18 2 C18 1.34 18 0.68 18 0 C18.66 0 19.32 0 20 0 C20 0.66 20 1.32 20 2 C21.98 2 23.96 2 26 2 C26 1.34 26 0.68 26 0 C26.66 0 27.32 0 28 0 C28 0.66 28 1.32 28 2 C29.32 2 30.64 2 32 2 C32.495 4.97 32.495 4.97 33 8 C31.1875 9.0625 31.1875 9.0625 29 10 C28.01 9.67 27.02 9.34 26 9 C25.360625 9.165 24.72125 9.33 24.0625 9.5 C21.68227266 10.07702481 20.30293321 9.74022853 18 9 C17.67 7.68 17.34 6.36 17 5 C16.67 6.32 16.34 7.64 16 9 C10.25 10 10.25 10 8 10 C7.67 10.33 7.34 10.66 7 11 C5.33382885 11.04063832 3.66611905 11.042721 2 11 C2 10.34 2 9.68 2 9 C1.34 9 0.68 9 0 9 C0 6.03 0 3.06 0 0 Z " fill="#565B58" transform="translate(164,264)"/>
<path d="M0 0 C2.64 0 5.28 0 8 0 C8 0.99 8 1.98 8 3 C6.35 3.33 4.7 3.66 3 4 C7.29 4.66 11.58 5.32 16 6 C16.63228516 7.93166016 16.63228516 7.93166016 17.27734375 9.90234375 C17.8305717 11.58078108 18.38396568 13.25916368 18.9375 14.9375 C19.35418945 16.21270508 19.35418945 16.21270508 19.77929688 17.51367188 C20.04677734 18.32255859 20.31425781 19.13144531 20.58984375 19.96484375 C20.83597412 20.7137085 21.08210449 21.46257324 21.33569336 22.23413086 C21.86064269 23.99825981 21.86064269 23.99825981 23 25 C23.125 28 23.125 28 23 31 C22 32 22 32 19.4375 32.0625 C18.633125 32.041875 17.82875 32.02125 17 32 C12.59225513 17.40318907 12.59225513 17.40318907 12 10 C6.5155733 9.25669086 6.5155733 9.25669086 1 9 C-0.6875 6.5 -0.6875 6.5 -2 4 C-1.34 4 -0.68 4 0 4 C0 2.68 0 1.36 0 0 Z M1 1 C1 1.33 1 1.66 1 2 C2.98 2 4.96 2 7 2 C7 1.67 7 1.34 7 1 C5.02 1 3.04 1 1 1 Z " fill="#EDAA42" transform="translate(317,242)"/>
<path d="M0 0 C3.4877577 0.22746246 6.54887462 1.14400968 9.875 2.1875 C9.875 1.5275 9.875 0.8675 9.875 0.1875 C11.525 0.1875 13.175 0.1875 14.875 0.1875 C14.875 0.8475 14.875 1.5075 14.875 2.1875 C15.65746094 2.17589844 16.43992188 2.16429687 17.24609375 2.15234375 C18.25800781 2.14332031 19.26992187 2.13429688 20.3125 2.125 C21.32183594 2.11339844 22.33117187 2.10179687 23.37109375 2.08984375 C25.875 2.1875 25.875 2.1875 26.875 3.1875 C26.91580783 5.18708364 26.91754356 7.18795254 26.875 9.1875 C22.34341651 10.77999446 17.66186576 9.91692759 12.98242188 9.50390625 C9.45894863 9.23056206 6.58582303 9.23239775 3.05078125 9.78125 C-0.125 10.1875 -0.125 10.1875 -3.125 8.1875 C-3.375 4.625 -3.375 4.625 -3.125 1.1875 C-2.125 0.1875 -2.125 0.1875 0 0 Z M-1.125 3.1875 C-1.125 4.1775 -1.125 5.1675 -1.125 6.1875 C-0.135 6.1875 0.855 6.1875 1.875 6.1875 C1.875 5.1975 1.875 4.2075 1.875 3.1875 C0.885 3.1875 -0.105 3.1875 -1.125 3.1875 Z " fill="#727871" transform="translate(226.125,263.8125)"/>
<path d="M0 0 C5.94 0 11.88 0 18 0 C19.32229189 2.64458379 19.09677194 4.67761301 19.0625 7.625 C19.05347656 8.62789063 19.04445312 9.63078125 19.03515625 10.6640625 C19.02355469 11.43492187 19.01195312 12.20578125 19 13 C17.33388095 13.042721 15.66617115 13.04063832 14 13 C13 12 13 12 12.90234375 10.15234375 C12.95117188 7.07617188 12.95117188 7.07617188 13 4 C12.34 4 11.68 4 11 4 C11 6.97 11 9.94 11 13 C9.68 13 8.36 13 7 13 C7 10.03 7 7.06 7 4 C6.01 4 5.02 4 4 4 C4 6.97 4 9.94 4 13 C2.68 13 1.36 13 0 13 C0 8.71 0 4.42 0 0 Z " fill="#1E7720" transform="translate(193,250)"/>
<path d="M0 0 C0 0.33 0 0.66 0 1 C-1.65 1 -3.3 1 -5 1 C-5 1.66 -5 2.32 -5 3 C-4.01 3.33 -3.02 3.66 -2 4 C-2.33 6.31 -2.66 8.62 -3 11 C-7.62 11 -12.24 11 -17 11 C-17.33 10.34 -17.66 9.68 -18 9 C-16.02 9 -14.04 9 -12 9 C-12 8.01 -12 7.02 -12 6 C-14.97 6 -17.94 6 -21 6 C-21 4.02 -21 2.04 -21 0 C-18.43788925 -0.19569589 -15.87567609 -0.38180612 -13.3125 -0.5625 C-12.59126953 -0.61857422 -11.87003906 -0.67464844 -11.12695312 -0.73242188 C-7.22685936 -0.99955159 -3.78888972 -1.00887596 0 0 Z " fill="#0D7608" transform="translate(337,236)"/>
<path d="M0 0 C1.65 0.33 3.3 0.66 5 1 C5.33 2.98 5.66 4.96 6 7 C5.34 7 4.68 7 4 7 C4.33 9.97 4.66 12.94 5 16 C3.35 16 1.7 16 0 16 C0 13.36 0 10.72 0 8 C-0.66 8 -1.32 8 -2 8 C-2 9.98 -2 11.96 -2 14 C-3.65 14.33 -5.3 14.66 -7 15 C-7 12.69 -7 10.38 -7 8 C-8.32 8 -9.64 8 -11 8 C-11.33 9.65 -11.66 11.3 -12 13 C-12.66 12.67 -13.32 12.34 -14 12 C-13.34 9.36 -12.68 6.72 -12 4 C-8 4 -4 4 0 4 C0 2.68 0 1.36 0 0 Z " fill="#4E9853" transform="translate(279,246)"/>
<path d="M0 0 C2.375 -0.125 2.375 -0.125 5 0 C5.66 0.66 6.32 1.32 7 2 C10.13545766 2.02135378 10.13545766 2.02135378 13.625 1.625 C15.40777344 1.45871094 15.40777344 1.45871094 17.2265625 1.2890625 C18.14179688 1.19367188 19.05703125 1.09828125 20 1 C20.97608217 3.92824652 21.08226668 5.95613276 21 9 C19.25093341 9.19601608 17.50068154 9.38147403 15.75 9.5625 C14.77546875 9.66691406 13.8009375 9.77132813 12.796875 9.87890625 C10.20061123 9.99131432 8.46280433 9.70962159 6 9 C4.00036972 8.96154557 1.99948367 8.95455719 0 9 C0 6.03 0 3.06 0 0 Z " fill="#4C514B" transform="translate(199,264)"/>
<path d="M0 0 C1.6026782 -0.10824843 3.20745748 -0.18570645 4.8125 -0.25 C5.70582031 -0.29640625 6.59914063 -0.3428125 7.51953125 -0.390625 C10 0 10 0 11.82421875 1.890625 C13.71753851 5.28727838 12.85109542 8.28612906 12 12 C8.1496895 14.56687367 6.41430237 13.83288724 2 13 C1.29925156 9.846632 1 7.27275026 1 4 C0.01 3.67 -0.98 3.34 -2 3 C-1.34 3 -0.68 3 0 3 C0 2.01 0 1.02 0 0 Z M6 8 C6 8.66 6 9.32 6 10 C6.66 9.67 7.32 9.34 8 9 C7.34 8.67 6.68 8.34 6 8 Z " fill="#4F9A51" transform="translate(308,250)"/>
<path d="M0 0 C1.67542976 0.28604898 3.34385343 0.61781233 5 1 C5 1.66 5 2.32 5 3 C7.64 3 10.28 3 13 3 C13 4.32 13 5.64 13 7 C11.68 7 10.36 7 9 7 C9 7.66 9 8.32 9 9 C11.97 9.495 11.97 9.495 15 10 C15 10.33 15 10.66 15 11 C11.7 11 8.4 11 5 11 C4.67 11.99 4.34 12.98 4 14 C2.35 14 0.7 14 -1 14 C-1.02685938 11.85423363 -1.04633088 9.70837355 -1.0625 7.5625 C-1.07410156 6.36753906 -1.08570313 5.17257813 -1.09765625 3.94140625 C-1 1 -1 1 0 0 Z " fill="#F40B37" transform="translate(300,233)"/>
<path d="M0 0 C1.65 0.33 3.3 0.66 5 1 C5 1.66 5 2.32 5 3 C10.445 2.505 10.445 2.505 16 2 C16.97608217 4.92824652 17.08226668 6.95613276 17 10 C10.84098757 11.23180249 5.21324498 10.73030908 -1 10 C-1 7.69 -1 5.38 -1 3 C-0.01 3 0.98 3 2 3 C2 2.34 2 1.68 2 1 C1.34 0.67 0.68 0.34 0 0 Z " fill="#69726A" transform="translate(291,263)"/>
<path d="M0 0 C3.375 -0.125 3.375 -0.125 7 0 C7.66 0.66 8.32 1.32 9 2 C11.57061311 2.64767793 11.57061311 2.64767793 14 3 C14.66 5.31 15.32 7.62 16 10 C16.33 10 16.66 10 17 10 C17 13.3 17 16.6 17 20 C14.69 20 12.38 20 10 20 C10 19.34 10 18.68 10 18 C8.35 18 6.7 18 5 18 C5 17.67 5 17.34 5 17 C6.98 17 8.96 17 11 17 C11.33 14.69 11.66 12.38 12 10 C10.68 9.67 9.36 9.34 8 9 C9 7 9 7 12 6 C10.576875 6.0928125 10.576875 6.0928125 9.125 6.1875 C8.09375 6.125625 7.0625 6.06375 6 6 C5.34 5.01 4.68 4.02 4 3 C1.94074861 2.27617533 1.94074861 2.27617533 0 2 C0 1.34 0 0.68 0 0 Z " fill="#848414" transform="translate(323,230)"/>
<path d="M0 0 C6.15234375 -0.09765625 6.15234375 -0.09765625 8 0 C9 1 9 1 9.09765625 3.72265625 C9.08605469 4.82480469 9.07445312 5.92695313 9.0625 7.0625 C9.05347656 8.16722656 9.04445312 9.27195312 9.03515625 10.41015625 C9.02355469 11.26480469 9.01195312 12.11945313 9 13 C7.56465159 13.2226746 6.12654475 13.42761906 4.6875 13.625 C3.88699219 13.74101562 3.08648437 13.85703125 2.26171875 13.9765625 C0 14 0 14 -3 12 C-2.67 10.35 -2.34 8.7 -2 7 C-1.01 7 -0.02 7 1 7 C1 7.99 1 8.98 1 10 C2.32 10 3.64 10 5 10 C5 9.01 5 8.02 5 7 C3.68 6.34 2.36 5.68 1 5 C2.32 5 3.64 5 5 5 C5 4.34 5 3.68 5 3 C3.02 3 1.04 3 -1 3 C-0.67 2.01 -0.34 1.02 0 0 Z " fill="#308534" transform="translate(173,250)"/>
<path d="M0 0 C2.70583756 0.25560029 5.37210774 0.56759978 8.0625 0.9375 C9.20041992 1.08735352 9.20041992 1.08735352 10.36132812 1.24023438 C12.24154246 1.48856457 14.12086128 1.74365751 16 2 C16 2.66 16 3.32 16 4 C15.01 4.495 15.01 4.495 14 5 C13.34786708 7.02463255 13.34786708 7.02463255 13 9 C7.25 10.125 7.25 10.125 5 9 C4.01 9.33 3.02 9.66 2 10 C1.01 9.67 0.02 9.34 -1 9 C-1.09765625 2.84765625 -1.09765625 2.84765625 -1 1 C-0.67 0.67 -0.34 0.34 0 0 Z M1 3 C1.33 4.32 1.66 5.64 2 7 C3.32 6.67 4.64 6.34 6 6 C6 5.34 6 4.68 6 4 C4.35 3.67 2.7 3.34 1 3 Z " fill="#505451" transform="translate(257,264)"/>
<path d="M0 0 C1.98 0 3.96 0 6 0 C6.33 3.3 6.66 6.6 7 10 C6.01 9.67 5.02 9.34 4 9 C4.33 11.97 4.66 14.94 5 18 C3.35 18 1.7 18 0 18 C0 12.06 0 6.12 0 0 Z " fill="#419344" transform="translate(244,245)"/>
<path d="M0 0 C3.125 1.375 3.125 1.375 5 3 C5 3.66 5 4.32 5 5 C5.66 5 6.32 5 7 5 C8.11445498 7.22890995 8.16480286 8.53055106 8.1875 11 C8.20167969 11.70125 8.21585937 12.4025 8.23046875 13.125 C8 15 8 15 6 17 C5.97421875 16.37351563 5.9484375 15.74703125 5.921875 15.1015625 C5.86515625 14.28429687 5.8084375 13.46703125 5.75 12.625 C5.70359375 11.81289062 5.6571875 11.00078125 5.609375 10.1640625 C5.21776206 7.8602557 5.21776206 7.8602557 3.203125 6.8359375 C2.47609375 6.56007812 1.7490625 6.28421875 1 6 C0.02933594 5.443125 0.02933594 5.443125 -0.9609375 4.875 C-3.36789573 3.84212903 -5.02379515 3.86080509 -7.625 4 C-9.9765625 4.125 -9.9765625 4.125 -12 4 C-12.66 3.34 -13.32 2.68 -14 2 C-9.44466646 -0.6406206 -5.14407882 -0.55679044 0 0 Z " fill="#EFAC59" transform="translate(332,225)"/>
<path d="M0 0 C0.66 0 1.32 0 2 0 C2.33 2.31 2.66 4.62 3 7 C3.66 7 4.32 7 5 7 C5 7.66 5 8.32 5 9 C5.66 9 6.32 9 7 9 C9.08997373 12.39620731 9.2632246 15.05163095 9 19 C8 20 8 20 5.4375 20.0625 C4.633125 20.041875 3.82875 20.02125 3 20 C2.49550598 17.41747107 1.99625699 14.83411297 1.5 12.25 C1.35691406 11.52039063 1.21382813 10.79078125 1.06640625 10.0390625 C0.41111121 6.60656468 0 3.50830509 0 0 Z " fill="#F78B0E" transform="translate(331,254)"/>
<path d="M0 0 C1.98 0 3.96 0 6 0 C6.33 2.31 6.66 4.62 7 7 C7.99 6.34 8.98 5.68 10 5 C9.67 7.64 9.34 10.28 9 13 C9.99 11.68 10.98 10.36 12 9 C12.28875 9.61875 12.5775 10.2375 12.875 10.875 C13.93720042 13.13325765 13.93720042 13.13325765 16 15 C16.99 15 17.98 15 19 15 C19 15.66 19 16.32 19 17 C16.36609075 18.72217143 15.07588583 19.00455315 11.875 18.8125 C9 18 9 18 7 15 C6.67 15.99 6.34 16.98 6 18 C5.01 17.67 4.02 17.34 3 17 C3.66 17 4.32 17 5 17 C5 11.72 5 6.44 5 1 C3.35 1.33 1.7 1.66 0 2 C0 1.34 0 0.68 0 0 Z " fill="#7AB97E" transform="translate(257,245)"/>
<path d="M0 0 C0.66 0 1.32 0 2 0 C2 0.66 2 1.32 2 2 C3.32 2 4.64 2 6 2 C6.33 3.98 6.66 5.96 7 8 C5.1875 9.0625 5.1875 9.0625 3 10 C2.01 9.67 1.02 9.34 0 9 C-1.33568021 9.32380126 -2.66923011 9.65657551 -4 10 C-4.66 9.67 -5.32 9.34 -6 9 C-6 6.69 -6 4.38 -6 2 C-4.02 2 -2.04 2 0 2 C0 1.34 0 0.68 0 0 Z " fill="#3F463E" transform="translate(190,264)"/>
<path d="M0 0 C0.33 0.66 0.66 1.32 1 2 C2.17369141 1.98259766 2.17369141 1.98259766 3.37109375 1.96484375 C4.38300781 1.95582031 5.39492187 1.94679688 6.4375 1.9375 C7.44683594 1.92589844 8.45617187 1.91429687 9.49609375 1.90234375 C12 2 12 2 13 3 C13.04080783 4.99958364 13.04254356 7.00045254 13 9 C8.46008133 10.40570876 4.66150364 9.61696372 0 9 C0 6.03 0 3.06 0 0 Z " fill="#727874" transform="translate(240,264)"/>
<path d="M0 0 C2.97 0 5.94 0 9 0 C10.32229189 2.64458379 10.09677194 4.67761301 10.0625 7.625 C10.05347656 8.62789063 10.04445312 9.63078125 10.03515625 10.6640625 C10.02355469 11.43492187 10.01195312 12.20578125 10 13 C8.33388095 13.042721 6.66617115 13.04063832 5 13 C4 12 4 12 3.90234375 10.15234375 C3.93489583 8.1015625 3.96744792 6.05078125 4 4 C3.01 3.67 2.02 3.34 1 3 C0.67 2.01 0.34 1.02 0 0 Z " fill="#458E46" transform="translate(202,250)"/>
<path d="M0 0 C2.97 0 5.94 0 9 0 C9 1.32 9 2.64 9 4 C8.01 4.33 7.02 4.66 6 5 C5.67 7.64 5.34 10.28 5 13 C3.35 13 1.7 13 0 13 C0 8.71 0 4.42 0 0 Z " fill="#368C3A" transform="translate(183,250)"/>
<path d="M0 0 C0.33 0.66 0.66 1.32 1 2 C2.32 2 3.64 2 5 2 C5.33 1.34 5.66 0.68 6 0 C6.99 0 7.98 0 9 0 C9 0.66 9 1.32 9 2 C10.65 2.33 12.3 2.66 14 3 C14 3.66 14 4.32 14 5 C13.01 5.495 13.01 5.495 12 6 C12.66 6.33 13.32 6.66 14 7 C14 7.99 14 8.98 14 10 C13.34 9.67 12.68 9.34 12 9 C11.67 9.33 11.34 9.66 11 10 C10.67 9.01 10.34 8.02 10 7 C6.84866512 8.83827868 3.88035092 10.75972706 1 13 C1 12.01 1 11.02 1 10 C1.66 10 2.32 10 3 10 C3 9.34 3 8.68 3 8 C1.68 8.33 0.36 8.66 -1 9 C-0.67 8.01 -0.34 7.02 0 6 C3.465 5.505 3.465 5.505 7 5 C4.69 4.34 2.38 3.68 0 3 C0 2.01 0 1.02 0 0 Z " fill="#75B675" transform="translate(164,250)"/>
<path d="M0 0 C0.69222656 0.08765625 1.38445312 0.1753125 2.09765625 0.265625 C3.9375 0.75 3.9375 0.75 5.9375 2.75 C5.9375 4.07 5.9375 5.39 5.9375 6.75 C4.6175 6.75 3.2975 6.75 1.9375 6.75 C1.9375 6.09 1.9375 5.43 1.9375 4.75 C-0.4056213 5.00561323 -2.74093403 5.34270772 -5.0625 5.75 C-5.3925 6.41 -5.7225 7.07 -6.0625 7.75 C-7.0625 6.75 -7.0625 6.75 -7.3125 4.3125 C-7.23 3.466875 -7.1475 2.62125 -7.0625 1.75 C-3.88217735 -0.3702151 -3.51682601 -0.4995865 0 0 Z " fill="#428A47" transform="translate(163.0625,245.25)"/>
<path d="M0 0 C0 2.31 0 4.62 0 7 C-6.625 8.25 -6.625 8.25 -10 6 C-9.67 4.02 -9.34 2.04 -9 0 C-5.62182575 -0.84454356 -3.32534757 -1.10844919 0 0 Z " fill="#A3A8A4" transform="translate(220,266)"/>
<path d="M0 0 C2.64 0 5.28 0 8 0 C8 0.99 8 1.98 8 3 C6.35 3.33 4.7 3.66 3 4 C7.29 4.66 11.58 5.32 16 6 C15.67 6.66 15.34 7.32 15 8 C13.68 7.67 12.36 7.34 11 7 C11 7.66 11 8.32 11 9 C10.01 9 9.02 9 8 9 C8 8.34 8 7.68 8 7 C7.34 6.67 6.68 6.34 6 6 C5.67 6.99 5.34 7.98 5 9 C4.01 9.33 3.02 9.66 2 10 C0.68 8.02 -0.64 6.04 -2 4 C-1.34 4 -0.68 4 0 4 C0 2.68 0 1.36 0 0 Z M1 1 C1 1.33 1 1.66 1 2 C2.98 2 4.96 2 7 2 C7 1.67 7 1.34 7 1 C5.02 1 3.04 1 1 1 Z " fill="#BBA742" transform="translate(317,242)"/>
<path d="M0 0 C1.32 0 2.64 0 4 0 C4 5.28 4 10.56 4 16 C3.01 16.33 2.02 16.66 1 17 C0.67 14.03 0.34 11.06 0 8 C-0.33 8 -0.66 8 -1 8 C-1.04241723 5.66705225 -1.04092937 3.33297433 -1 1 C-0.67 0.67 -0.34 0.34 0 0 Z " fill="#16721B" transform="translate(258,246)"/>
<path d="M0 0 C1.67542976 0.28604898 3.34385343 0.61781233 5 1 C5 1.66 5 2.32 5 3 C7.64 3 10.28 3 13 3 C13 3.33 13 3.66 13 4 C10.69 4 8.38 4 6 4 C6 4.99 6 5.98 6 7 C4.35 7 2.7 7 1 7 C0.67 8.65 0.34 10.3 0 12 C1.65 11.67 3.3 11.34 5 11 C4.67 11.99 4.34 12.98 4 14 C2.35 14 0.7 14 -1 14 C-1.02685938 11.85423363 -1.04633088 9.70837355 -1.0625 7.5625 C-1.07410156 6.36753906 -1.08570313 5.17257813 -1.09765625 3.94140625 C-1 1 -1 1 0 0 Z " fill="#EF1248" transform="translate(300,233)"/>
<path d="M0 0 C0.763125 0.350625 1.52625 0.70125 2.3125 1.0625 C5.04759379 2.32360884 5.04759379 2.32360884 8 1 C8 3.64 8 6.28 8 9 C5.36 9 2.72 9 0 9 C0 6.03 0 3.06 0 0 Z " fill="#676B66" transform="translate(275,264)"/>
<path d="M0 0 C4.66839378 1.32124352 4.66839378 1.32124352 7 3 C8.48882536 5.89550864 9.30188363 8.82855705 10 12 C8.35 12 6.7 12 5 12 C5 10.68 5 9.36 5 8 C4.01 7.67 3.02 7.34 2 7 C0.35179805 4.39757586 0 3.13751221 0 0 Z " fill="#2F7C34" transform="translate(228,251)"/>
<path d="M0 0 C1.65 0 3.3 0 5 0 C4.67 0.99 4.34 1.98 4 3 C4.99 3.33 5.98 3.66 7 4 C6.01 4 5.02 4 4 4 C4 6.97 4 9.94 4 13 C2.68 13 1.36 13 0 13 C0 8.71 0 4.42 0 0 Z " fill="#287829" transform="translate(193,250)"/>
<path d="M0 0 C0 0.33 0 0.66 0 1 C-1.65 1 -3.3 1 -5 1 C-4.67 2.32 -4.34 3.64 -4 5 C-4.99 5 -5.98 5 -7 5 C-7 3.68 -7 2.36 -7 1 C-10.3 1.33 -13.6 1.66 -17 2 C-16 4.5 -16 4.5 -12 6 C-14.97 6 -17.94 6 -21 6 C-21 4.02 -21 2.04 -21 0 C-18.43788925 -0.19569589 -15.87567609 -0.38180612 -13.3125 -0.5625 C-12.59126953 -0.61857422 -11.87003906 -0.67464844 -11.12695312 -0.73242188 C-7.22685936 -0.99955159 -3.78888972 -1.00887596 0 0 Z " fill="#277210" transform="translate(337,236)"/>
<path d="M0 0 C0.99 0 1.98 0 3 0 C3.66 0.66 4.32 1.32 5 2 C6.64991582 2.70710678 8.31562256 3.37943989 10 4 C10 5.65 10 7.3 10 9 C8.68 9.33 7.36 9.66 6 10 C5.34 8.02 4.68 6.04 4 4 C2.35 4 0.7 4 -1 4 C-1 5.65 -1 7.3 -1 9 C-0.01 8.67 0.98 8.34 2 8 C1.67 9.65 1.34 11.3 1 13 C-0.98 13 -2.96 13 -5 13 C-3.68 12.67 -2.36 12.34 -1 12 C-1.33 11.34 -1.66 10.68 -2 10 C-2.04022391 7.6670134 -2.04320247 5.33293334 -2 3 C-1.34 3 -0.68 3 0 3 C0 2.01 0 1.02 0 0 Z M6 4 C6.33 5.65 6.66 7.3 7 9 C7.66 8.67 8.32 8.34 9 8 C9 6.68 9 5.36 9 4 C8.01 4 7.02 4 6 4 Z " fill="#7FBC85" transform="translate(285,250)"/>
<path d="M0 0 C0.66 1.32 1.32 2.64 2 4 C2.66 3.67 3.32 3.34 4 3 C4.33 5.64 4.66 8.28 5 11 C4.01 11 3.02 11 2 11 C2.66 12.32 3.32 13.64 4 15 C3.01 14.67 2.02 14.34 1 14 C1 13.34 1 12.68 1 12 C0.34 12 -0.32 12 -1 12 C-2.50934217 8.98131566 -2.17510672 6.32702771 -2 3 C-1.34 2.01 -0.68 1.02 0 0 Z " fill="#63A663" transform="translate(155,248)"/>
<path d="M0 0 C0.33 0 0.66 0 1 0 C1.33 1.65 1.66 3.3 2 5 C2.33 5 2.66 5 3 5 C3 8.63 3 12.26 3 16 C2.34 15.01 1.68 14.02 1 13 C0.67 13.99 0.34 14.98 0 16 C-1.65 16 -3.3 16 -5 16 C-4.67 15.34 -4.34 14.68 -4 14 C-3.01 14.33 -2.02 14.66 -1 15 C-1.09539062 14.33613281 -1.19078125 13.67226563 -1.2890625 12.98828125 C-2.39015817 4.21792619 -2.39015817 4.21792619 0 0 Z " fill="#55A157" transform="translate(256,247)"/>
<path d="M0 0 C0.66 0 1.32 0 2 0 C2 1.65 2 3.3 2 5 C3.32 5.33 4.64 5.66 6 6 C5.67 5.01 5.34 4.02 5 3 C5.66 3 6.32 3 7 3 C7.38063221 5.3260857 7.71269945 7.66055264 8 10 C7 11 7 11 4.4375 11.0625 C3.633125 11.041875 2.82875 11.02125 2 11 C2 10.34 2 9.68 2 9 C1.34 9 0.68 9 0 9 C0 6.03 0 3.06 0 0 Z " fill="#323935" transform="translate(164,264)"/>
<path d="M0 0 C1.32 0 2.64 0 4 0 C4.87890625 6.15234375 4.87890625 6.15234375 5 8 C4 9 4 9 0.9375 9.0625 C-0.031875 9.041875 -1.00125 9.02125 -2 9 C-1.41196203 5.97580475 -0.77321882 2.98241547 0 0 Z " fill="#3C463D" transform="translate(236,264)"/>
<path d="M0 0 C0.33 0.99 0.66 1.98 1 3 C3.01508358 3.73323796 3.01508358 3.73323796 5 4 C2.54137599 4.05383848 0.0839245 4.09359038 -2.375 4.125 C-3.42300781 4.15013672 -3.42300781 4.15013672 -4.4921875 4.17578125 C-6.32897486 4.19344267 -8.16601963 4.10303261 -10 4 C-10.66 3.34 -11.32 2.68 -12 2 C-8.09971775 -0.60018816 -4.52565431 -0.15085514 0 0 Z " fill="#E99533" transform="translate(330,225)"/>
<path d="M0 0 C0 2.31 0 4.62 0 7 C-0.99 7 -1.98 7 -3 7 C-3.33 6.01 -3.66 5.02 -4 4 C-5.32 4 -6.64 4 -8 4 C-8.33 4.66 -8.66 5.32 -9 6 C-9 4.35 -9 2.7 -9 1 C-3.375 -1.125 -3.375 -1.125 0 0 Z " fill="#595F5A" transform="translate(308,266)"/>
<path d="M0 0 C0.99 0.66 1.98 1.32 3 2 C3 2.99 3 3.98 3 5 C2.34 5 1.68 5 1 5 C1.33 7.97 1.66 10.94 2 14 C0.68 14 -0.64 14 -2 14 C-2 10.7 -2 7.4 -2 4 C-1.34 3.67 -0.68 3.34 0 3 C0 2.01 0 1.02 0 0 Z " fill="#18761B" transform="translate(282,248)"/>
<path d="M0 0 C2.5654594 2.5654594 2.54046087 4.47686668 3 8 C3.99 7.67 4.98 7.34 6 7 C5.67 4.69 5.34 2.38 5 0 C7.31309135 2.50584896 7.97826344 3.72285889 8.25 7.1875 C8 10 8 10 7 11 C5.35 11 3.7 11 2 11 C1.34 7.37 0.68 3.74 0 0 Z " fill="#EBAC59" transform="translate(332,263)"/>
<path d="M0 0 C2.64 0 5.28 0 8 0 C8 0.99 8 1.98 8 3 C6.68 3.33 5.36 3.66 4 4 C4 5.65 4 7.3 4 9 C3.01 8.67 2.02 8.34 1 8 C0.67 5.36 0.34 2.72 0 0 Z " fill="#1B741A" transform="translate(300,250)"/>
<path d="M0 0 C1.65 0.33 3.3 0.66 5 1 C4.67 2.65 4.34 4.3 4 6 C3.01 6 2.02 6 1 6 C1 9.3 1 12.6 1 16 C0.67 16 0.34 16 0 16 C0 13.36 0 10.72 0 8 C-0.66 8 -1.32 8 -2 8 C-2 6.68 -2 5.36 -2 4 C-1.34 4 -0.68 4 0 4 C0 2.68 0 1.36 0 0 Z " fill="#509A51" transform="translate(279,246)"/>
<path d="M0 0 C0.33 0 0.66 0 1 0 C1.185625 1.7015625 1.185625 1.7015625 1.375 3.4375 C1.684375 5.2009375 1.684375 5.2009375 2 7 C2.66 7.33 3.32 7.66 4 8 C4 6.35 4 4.7 4 3 C4.33 3 4.66 3 5 3 C5 5.97 5 8.94 5 12 C3.35 12 1.7 12 0 12 C-0.38897161 10.37828761 -0.76078298 8.75245075 -1.125 7.125 C-1.43824219 5.76761719 -1.43824219 5.76761719 -1.7578125 4.3828125 C-1.83773438 3.59648437 -1.91765625 2.81015625 -2 2 C-1.34 1.34 -0.68 0.68 0 0 Z " fill="#78B57A" transform="translate(300,251)"/>
<path d="M0 0 C1.32 0 2.64 0 4 0 C4.33 0.99 4.66 1.98 5 3 C4.01 3 3.02 3 2 3 C2.53725895 6.37705625 3.11064623 9.696686 4 13 C2.68 13 1.36 13 0 13 C0 8.71 0 4.42 0 0 Z " fill="#4A984C" transform="translate(183,250)"/>
<path d="M0 0 C0.5625 1.9375 0.5625 1.9375 1 4 C0 5 0 5 -3.8125 5.25 C-7.43966299 5.22395215 -9.36005703 4.63994297 -12 2 C-10.75579353 1.4654744 -9.50429064 0.94791389 -8.25 0.4375 C-7.55390625 0.14746094 -6.8578125 -0.14257812 -6.140625 -0.44140625 C-3.69987216 -1.07831803 -2.3596345 -0.80248831 0 0 Z M-4 2 C-4.66 2.66 -5.32 3.32 -6 4 C-4.02 4 -2.04 4 0 4 C0 3.34 0 2.68 0 2 C-1.32 2 -2.64 2 -4 2 Z " fill="#E57F97" transform="translate(313,231)"/>
<path d="M0 0 C0.66 0.33 1.32 0.66 2 1 C3.37342831 1.0689472 4.75002102 1.08467708 6.125 1.0625 C7.40375 1.041875 8.6825 1.02125 10 1 C10 1.66 10 2.32 10 3 C9.34 3 8.68 3 8 3 C8 3.99 8 4.98 8 6 C6.02 6 4.04 6 2 6 C1.566875 5.0409375 1.566875 5.0409375 1.125 4.0625 C0.17176549 1.84793921 0.17176549 1.84793921 -2 1 C-1.34 0.67 -0.68 0.34 0 0 Z " fill="#187320" transform="translate(157,257)"/>
<path d="M0 0 C1.65 0.33 3.3 0.66 5 1 C5.1875 3.375 5.1875 3.375 5 6 C4.01 6.66 3.02 7.32 2 8 C0.68 7.34 -0.64 6.68 -2 6 C-2 5.34 -2 4.68 -2 4 C-1.34 4 -0.68 4 0 4 C0 2.68 0 1.36 0 0 Z " fill="#303632" transform="translate(206,266)"/>
<path d="M0 0 C2 2 2 2 2.125 4.625 C2.08375 5.40875 2.0425 6.1925 2 7 C2.66 7 3.32 7 4 7 C4 8.32 4 9.64 4 11 C0.04 10.67 -3.92 10.34 -8 10 C-8 9.67 -8 9.34 -8 9 C-5.36 8.67 -2.72 8.34 0 8 C0 7.34 0 6.68 0 6 C-1.32 6.33 -2.64 6.66 -4 7 C-4 6.34 -4 5.68 -4 5 C-2.68 5 -1.36 5 0 5 C0 3.35 0 1.7 0 0 Z " fill="#F47049" transform="translate(313,235)"/>
<path d="M0 0 C1.27875 -0.061875 2.5575 -0.12375 3.875 -0.1875 C4.95394531 -0.23970703 4.95394531 -0.23970703 6.0546875 -0.29296875 C6.69664062 -0.19628906 7.33859375 -0.09960938 8 0 C8.66 0.99 9.32 1.98 10 3 C8.68 4.65 7.36 6.3 6 8 C5.938125 7.38125 5.87625 6.7625 5.8125 6.125 C5.171081 3.72238859 5.171081 3.72238859 2.4375 2.75 C1.633125 2.5025 0.82875 2.255 0 2 C0 1.34 0 0.68 0 0 Z " fill="#207A26" transform="translate(289,250)"/>
<path d="M0 0 C2.00720923 0.28674418 4.0085944 0.61866701 6 1 C6 1.99 6 2.98 6 4 C4.35 3.67 2.7 3.34 1 3 C1.185625 3.61875 1.37125 4.2375 1.5625 4.875 C2 7 2 7 1 9 C0.34 9 -0.32 9 -1 9 C-1.09765625 2.84765625 -1.09765625 2.84765625 -1 1 C-0.67 0.67 -0.34 0.34 0 0 Z " fill="#737B75" transform="translate(257,264)"/>
<path d="M0 0 C0.66 0.99 1.32 1.98 2 3 C-0.31 2.67 -2.62 2.34 -5 2 C-5 2.99 -5 3.98 -5 5 C-5.99 5 -6.98 5 -8 5 C-7.625 2.5625 -7.625 2.5625 -7 0 C-4.27584084 -1.36207958 -2.87220643 -0.86166193 0 0 Z " fill="#1C781A" transform="translate(319,251)"/>
<path d="M0 0 C0.33 0.99 0.66 1.98 1 3 C-2.07617188 3.29296875 -2.07617188 3.29296875 -5.15234375 3.5859375 C-5.76207031 3.72257813 -6.37179688 3.85921875 -7 4 C-7.33 4.66 -7.66 5.32 -8 6 C-8.33 4.35 -8.66 2.7 -9 1 C-6.04335481 -0.4783226 -3.25770263 -0.06032783 0 0 Z " fill="#0F7813" transform="translate(165,247)"/>
<path d="M0 0 C4.24480464 -0.33292585 6.35542625 -0.43885872 9.9375 2 C10.618125 2.66 11.29875 3.32 12 4 C11.01 4.66 10.02 5.32 9 6 C6 5 6 5 4 3 C1.93125966 2.3574765 1.93125966 2.3574765 0 2 C0 1.34 0 0.68 0 0 Z " fill="#7FA06A" transform="translate(323,230)"/>
<path d="M0 0 C0.33 0.99 0.66 1.98 1 3 C3.64 3 6.28 3 9 3 C9 3.66 9 4.32 9 5 C4.38 5 -0.24 5 -5 5 C-5.33 4.34 -5.66 3.68 -6 3 C-4.02 3 -2.04 3 0 3 C0 2.01 0 1.02 0 0 Z " fill="#2B710D" transform="translate(325,242)"/>
<path d="M0 0 C0.45375 0.61875 0.9075 1.2375 1.375 1.875 C2.97108919 4.05919833 2.97108919 4.05919833 5 6 C5.99 6 6.98 6 8 6 C8 6.66 8 7.32 8 8 C5.35261084 9.4606285 4.10551666 10 1 10 C1.33 8.68 1.66 7.36 2 6 C1.34 6 0.68 6 0 6 C0 4.02 0 2.04 0 0 Z " fill="#61A362" transform="translate(268,254)"/>
<path d="M0 0 C0.99 0.33 1.98 0.66 3 1 C3 1.66 3 2.32 3 3 C2.01 3 1.02 3 0 3 C0 5.97 0 8.94 0 12 C1.65 11.67 3.3 11.34 5 11 C4.67 11.99 4.34 12.98 4 14 C2.35 14 0.7 14 -1 14 C-1.02685938 11.85423363 -1.04633088 9.70837355 -1.0625 7.5625 C-1.07410156 6.36753906 -1.08570313 5.17257813 -1.09765625 3.94140625 C-1 1 -1 1 0 0 Z " fill="#D63851" transform="translate(300,233)"/>
<path d="M0 0 C0.66 0 1.32 0 2 0 C2 2.97 2 5.94 2 9 C1.34 9 0.68 9 0 9 C-0.33 7.68 -0.66 6.36 -1 5 C-1.66 5.99 -2.32 6.98 -3 8 C-3 6.02 -3 4.04 -3 2 C-2.01 2 -1.02 2 0 2 C0 1.34 0 0.68 0 0 Z " fill="#323C35" transform="translate(182,264)"/>
<path d="M0 0 C1.65 0 3.3 0 5 0 C4.34 0.66 3.68 1.32 3 2 C3 2.99 3 3.98 3 5 C3.99 5.33 4.98 5.66 6 6 C6.33 4.68 6.66 3.36 7 2 C7.33 3.65 7.66 5.3 8 7 C5.36 7 2.72 7 0 7 C0 4.69 0 2.38 0 0 Z " fill="#444D45" transform="translate(223,265)"/>
<path d="M0 0 C1.32 0 2.64 0 4 0 C4.33 0.99 4.66 1.98 5 3 C4.01 3.33 3.02 3.66 2 4 C0.78130071 6.50447516 0.78130071 6.50447516 0 9 C-0.66 8.67 -1.32 8.34 -2 8 C-1.34 5.36 -0.68 2.72 0 0 Z " fill="#127518" transform="translate(267,250)"/>
<path d="M0 0 C3.465 1.485 3.465 1.485 7 3 C6.34 4.32 5.68 5.64 5 7 C4.01 7 3.02 7 2 7 C0.5393715 4.35261084 0 3.10551666 0 0 Z " fill="#0C770C" transform="translate(228,251)"/>
<path d="M0 0 C3.3 0 6.6 0 10 0 C9.67 0.66 9.34 1.32 9 2 C6.69 2 4.38 2 2 2 C3.32 2.33 4.64 2.66 6 3 C6 3.66 6 4.32 6 5 C3.69 4.67 1.38 4.34 -1 4 C-0.67 2.68 -0.34 1.36 0 0 Z " fill="#6AAB6E" transform="translate(214,250)"/>
<path d="M0 0 C0 1.98 0 3.96 0 6 C-2.31 6 -4.62 6 -7 6 C-7 5.34 -7 4.68 -7 4 C-1.47058824 0 -1.47058824 0 0 0 Z " fill="#507C24" transform="translate(340,244)"/>
<path d="M0 0 C1.32 0.33 2.64 0.66 4 1 C4 1.99 4 2.98 4 4 C3.34 4 2.68 4 2 4 C2 5.65 2 7.3 2 9 C1.34 9 0.68 9 0 9 C0 6.03 0 3.06 0 0 Z " fill="#404641" transform="translate(156,264)"/>
<path d="M0 0 C0.99 0.33 1.98 0.66 3 1 C2.34 1 1.68 1 1 1 C1.33 1.99 1.66 2.98 2 4 C2.66 3.67 3.32 3.34 4 3 C3.67 4.32 3.34 5.64 3 7 C3.99 7 4.98 7 6 7 C6 7.66 6 8.32 6 9 C3.03 8.505 3.03 8.505 0 8 C0 5.36 0 2.72 0 0 Z " fill="#699E69" transform="translate(213,255)"/>
<path d="M0 0 C0.66 0.33 1.32 0.66 2 1 C2.33 1.99 2.66 2.98 3 4 C3.99 4 4.98 4 6 4 C6 4.99 6 5.98 6 7 C3 8 3 8 0 7 C-1.125 2.25 -1.125 2.25 0 0 Z " fill="#7B7B7A" transform="translate(298,266)"/>
<path d="M0 0 C-0.04125 0.9075 -0.0825 1.815 -0.125 2.75 C-0.00468444 5.8782046 0.3914708 7.38614006 2 10 C0.68 9.67 -0.64 9.34 -2 9 C-2.33 6.36 -2.66 3.72 -3 1 C-1 0 -1 0 0 0 Z " fill="#3D8E3D" transform="translate(289,253)"/>
<path d="M0 0 C1.32 0 2.64 0 4 0 C4 2.64 4 5.28 4 8 C3.34 8 2.68 8 2 8 C0.74335022 5.09399739 0 3.20395416 0 0 Z " fill="#0D7515" transform="translate(206,250)"/>
<path d="M0 0 C0.66 1.32 1.32 2.64 2 4 C2.66 3.67 3.32 3.34 4 3 C4.33 5.64 4.66 8.28 5 11 C1.69558013 8.79705342 0.19613917 7.71450698 -0.875 3.8125 C-0.91625 2.884375 -0.9575 1.95625 -1 1 C-0.67 0.67 -0.34 0.34 0 0 Z " fill="#3D9B3C" transform="translate(155,248)"/>
<path d="M0 0 C1.65 0 3.3 0 5 0 C5.125 2.875 5.125 2.875 5 6 C4.34 6.66 3.68 7.32 3 8 C3 6.35 3 4.7 3 3 C1.68 2.67 0.36 2.34 -1 2 C-0.67 1.34 -0.34 0.68 0 0 Z " fill="#589238" transform="translate(332,237)"/>
<path d="M0 0 C0.66 0 1.32 0 2 0 C2 0.66 2 1.32 2 2 C2.66 2 3.32 2 4 2 C3.67 3.65 3.34 5.3 3 7 C2.01 6.67 1.02 6.34 0 6 C0 4.02 0 2.04 0 0 Z " fill="#3F4440" transform="translate(212,267)"/>
<path d="M0 0 C1.2065625 0.0309375 1.2065625 0.0309375 2.4375 0.0625 C2.7675 1.7125 3.0975 3.3625 3.4375 5.0625 C2.4475 5.5575 2.4475 5.5575 1.4375 6.0625 C1.4375 4.4125 1.4375 2.7625 1.4375 1.0625 C1.1075 1.7225 0.7775 2.3825 0.4375 3.0625 C-0.8825 3.0625 -2.2025 3.0625 -3.5625 3.0625 C-3.8925 3.7225 -4.2225 4.3825 -4.5625 5.0625 C-3.43829114 0.08386076 -3.43829114 0.08386076 0 0 Z " fill="#6C6F6C" transform="translate(169.5625,265.9375)"/>
<path d="M0 0 C2.375 -0.125 2.375 -0.125 5 0 C7 2 7 2 7.125 4.625 C7.08375 5.40875 7.0425 6.1925 7 7 C5.35 7 3.7 7 2 7 C2.66 6.67 3.32 6.34 4 6 C4 5.01 4 4.02 4 3 C2.68 2.34 1.36 1.68 0 1 C0 0.67 0 0.34 0 0 Z " fill="#919F95" transform="translate(224,264)"/>
<path d="M0 0 C2.54384726 1.27192363 2.69368156 2.19948469 3.6875 4.8125 C3.95949219 5.49957031 4.23148437 6.18664062 4.51171875 6.89453125 C5.06812731 9.29376496 4.77364938 10.6894364 4 13 C4 12.34 4 11.68 4 11 C3.34 11 2.68 11 2 11 C1.34 7.37 0.68 3.74 0 0 Z " fill="#EFAD58" transform="translate(332,250)"/>
<path d="M0 0 C0.28875 0.639375 0.5775 1.27875 0.875 1.9375 C1.82823451 4.15206079 1.82823451 4.15206079 4 5 C4.33 5.33 4.66 5.66 5 6 C5.33 5.01 5.66 4.02 6 3 C6 4.32 6 5.64 6 7 C2.25 8.125 2.25 8.125 0 7 C0 4.69 0 2.38 0 0 Z " fill="#999B99" transform="translate(184,266)"/>
<path d="M0 0 C0.99 0.33 1.98 0.66 3 1 C3 3.31 3 5.62 3 8 C2.01 7.67 1.02 7.34 0 7 C0 5.68 0 4.36 0 3 C-0.66 2.67 -1.32 2.34 -2 2 C-1.34 2 -0.68 2 0 2 C0 1.34 0 0.68 0 0 Z " fill="#3C4439" transform="translate(217,265)"/>
<path d="M0 0 C1.32 0 2.64 0 4 0 C4.96070434 2.88211302 5.10581883 4.69850044 5.0625 7.6875 C5.05347656 8.49574219 5.04445312 9.30398438 5.03515625 10.13671875 C5.02355469 10.75160156 5.01195312 11.36648438 5 12 C4.67 12 4.34 12 4 12 C4 9.36 4 6.72 4 4 C3.01 3.67 2.02 3.34 1 3 C0.67 2.01 0.34 1.02 0 0 Z " fill="#94C496" transform="translate(202,250)"/>
<path d="M0 0 C0.99 0 1.98 0 3 0 C3 1.98 3 3.96 3 6 C1.68 6 0.36 6 -1 6 C-1.042721 4.33388095 -1.04063832 2.66617115 -1 1 C-0.67 0.67 -0.34 0.34 0 0 Z " fill="#087912" transform="translate(258,248)"/>
<path d="M0 0 C0.99 0 1.98 0 3 0 C3.1953125 6.0546875 3.1953125 6.0546875 3 8 C2.34 8.66 1.68 9.32 1 10 C0.67 6.7 0.34 3.4 0 0 Z " fill="#D99321" transform="translate(337,232)"/>
<path d="M0 0 C0.66 0 1.32 0 2 0 C2 2.31 2 4.62 2 7 C0.68 7 -0.64 7 -2 7 C-1.125 2.25 -1.125 2.25 0 0 Z " fill="#373734" transform="translate(296,266)"/>
<path d="M0 0 C1.67542976 0.28604898 3.34385343 0.61781233 5 1 C4.67 1.99 4.34 2.98 4 4 C2.68 4 1.36 4 0 4 C-0.33 4.66 -0.66 5.32 -1 6 C-1.042721 4.33388095 -1.04063832 2.66617115 -1 1 C-0.67 0.67 -0.34 0.34 0 0 Z " fill="#303734" transform="translate(300,266)"/>
<path d="M0 0 C0.99 0 1.98 0 3 0 C3.33 1.98 3.66 3.96 4 6 C3.34 5.67 2.68 5.34 2 5 C1.67 5.33 1.34 5.66 1 6 C0.34 5.34 -0.32 4.68 -1 4 C-0.625 1.875 -0.625 1.875 0 0 Z " fill="#212420" transform="translate(285,266)"/>
<path d="M0 0 C1.98 0 3.96 0 6 0 C5.34 0.66 4.68 1.32 4 2 C3.3574765 4.06874034 3.3574765 4.06874034 3 6 C2.34 6 1.68 6 1 6 C1 5.34 1 4.68 1 4 C0.01 3.67 -0.98 3.34 -2 3 C-1.34 3 -0.68 3 0 3 C0 2.01 0 1.02 0 0 Z " fill="#6DA368" transform="translate(308,250)"/>
<path d="M0 0 C1.0625 1.8125 1.0625 1.8125 2 4 C1.67 4.99 1.34 5.98 1 7 C0.01 7.33 -0.98 7.66 -2 8 C-2.66 7.34 -3.32 6.68 -4 6 C-3.67 5.34 -3.34 4.68 -3 4 C-2.01 4 -1.02 4 0 4 C0 2.68 0 1.36 0 0 Z " fill="#909290" transform="translate(195,266)"/>
<path d="M0 0 C0.33 0 0.66 0 1 0 C1 2.64 1 5.28 1 8 C-0.32 8 -1.64 8 -3 8 C-2.37240135 5.07120629 -1.41377341 2.63904371 0 0 Z " fill="#292E29" transform="translate(282,265)"/>
<path d="M0 0 C0 1.98 0 3.96 0 6 C-1.32 5.67 -2.64 5.34 -4 5 C-3.625 3.0625 -3.625 3.0625 -3 1 C-1 0 -1 0 0 0 Z " fill="#157318" transform="translate(255,256)"/>
<path d="M0 0 C0.33 0 0.66 0 1 0 C1.1546875 1.175625 1.1546875 1.175625 1.3125 2.375 C1.77595022 5.33045181 1.77595022 5.33045181 5 7 C5 7.66 5 8.32 5 9 C3.125 8.75 3.125 8.75 1 8 C-0.3125 6.1875 -0.3125 6.1875 -1 4 C-0.625 1.75 -0.625 1.75 0 0 Z " fill="#146F16" transform="translate(289,254)"/>
<path d="M0 0 C0.33 0 0.66 0 1 0 C1 2.97 1 5.94 1 9 C1.66 9 2.32 9 3 9 C3 9.99 3 10.98 3 12 C2.01 12 1.02 12 0 12 C0 8.04 0 4.08 0 0 Z " fill="#196D1B" transform="translate(245,250)"/>
<path d="M0 0 C0.99 0.33 1.98 0.66 3 1 C2.67 2.98 2.34 4.96 2 7 C1.01 7.33 0.02 7.66 -1 8 C-0.67 5.36 -0.34 2.72 0 0 Z " fill="#0E7710" transform="translate(273,253)"/>
</svg>
